STARTFONT 2.1
COMMENT Icons at U+2600 and ahead. Powerline included. Other stuff also.
FONT -hacker-droopybdf-Medium-r-Normal--12-120-75-75-c-70-ISO10646-1
SIZE 12 75 75
FONTBOUNDINGBOX 7 12 0 -2
STARTPROPERTIES 22
FOUNDRY "hacker"
FAMILY_NAME "droopybdf"
WEIGHT_NAME "Medium"
SLANT "r"
SETWIDTH_NAME "Normal"
ADD_STYLE_NAME ""
PIXEL_SIZE 12
POINT_SIZE 120
RESOLUTION_X 75
RESOLUTION_Y 75
SPACING "c"
AVERAGE_WIDTH 70
CHARSET_REGISTRY "ISO10646"
CHARSET_ENCODING "1"
FONT_NAME "droopybdf"
FACE_NAME "droopybdf"
COPYRIGHT "Super free!"
CAP_HEIGHT 8
X_HEIGHT 6
_GBDFED_INFO "Edited with gbdfed 1.6."
FONT_ASCENT 10
FONT_DESCENT 2
ENDPROPERTIES
CHARS 867
STARTCHAR char0
ENCODING 0
SWIDTH 560 0
DWIDTH 7 0
BBX 7 12 0 -2
BITMAP
00
AC
00
84
00
84
00
84
00
D4
00
00
ENDCHAR
STARTCHAR char1
ENCODING 1
SWIDTH 560 0
DWIDTH 7 0
BBX 7 12 0 -2
BITMAP
00
00
10
38
7C
FE
7C
38
10
00
00
00
ENDCHAR
STARTCHAR char2
ENCODING 2
SWIDTH 560 0
DWIDTH 7 0
BBX 7 12 0 -2
BITMAP
AA
54
AA
54
AA
54
AA
54
AA
54
AA
54
ENDCHAR
STARTCHAR char3
ENCODING 3
SWIDTH 560 0
DWIDTH 7 0
BBX 7 12 0 -2
BITMAP
00
A0
A0
E0
A0
AE
04
04
04
04
00
00
ENDCHAR
STARTCHAR char4
ENCODING 4
SWIDTH 560 0
DWIDTH 7 0
BBX 7 12 0 -2
BITMAP
00
30
40
60
40
4C
10
18
10
10
00
00
ENDCHAR
STARTCHAR char5
ENCODING 5
SWIDTH 560 0
DWIDTH 7 0
BBX 7 12 0 -2
BITMAP
00
60
80
80
80
6C
0A
0C
0A
0A
00
00
ENDCHAR
STARTCHAR char6
ENCODING 6
SWIDTH 560 0
DWIDTH 7 0
BBX 7 12 0 -2
BITMAP
00
80
80
80
80
EE
08
0C
08
08
00
00
ENDCHAR
STARTCHAR char7
ENCODING 7
SWIDTH 560 0
DWIDTH 7 0
BBX 7 12 0 -2
BITMAP
00
00
30
48
48
30
00
00
00
00
00
00
ENDCHAR
STARTCHAR char8
ENCODING 8
SWIDTH 560 0
DWIDTH 7 0
BBX 7 12 0 -2
BITMAP
00
00
00
10
10
7C
10
10
00
7C
00
00
ENDCHAR
STARTCHAR char9
ENCODING 9
SWIDTH 560 0
DWIDTH 7 0
BBX 7 12 0 -2
BITMAP
00
C0
A0
A0
A0
A8
08
08
08
06
00
00
ENDCHAR
STARTCHAR char10
ENCODING 10
SWIDTH 560 0
DWIDTH 7 0
BBX 7 12 0 -2
BITMAP
00
48
48
50
60
4E
04
04
04
04
00
00
ENDCHAR
STARTCHAR char11
ENCODING 11
SWIDTH 560 0
DWIDTH 7 0
BBX 7 12 0 -2
BITMAP
10
10
10
10
10
F0
00
00
00
00
00
00
ENDCHAR
STARTCHAR char12
ENCODING 12
SWIDTH 560 0
DWIDTH 7 0
BBX 7 12 0 -2
BITMAP
00
00
00
00
00
F0
10
10
10
10
10
10
ENDCHAR
STARTCHAR char13
ENCODING 13
SWIDTH 560 0
DWIDTH 7 0
BBX 7 12 0 -2
BITMAP
00
00
00
00
00
1E
10
10
10
10
10
10
ENDCHAR
STARTCHAR char14
ENCODING 14
SWIDTH 560 0
DWIDTH 7 0
BBX 7 12 0 -2
BITMAP
10
10
10
10
10
1E
00
00
00
00
00
00
ENDCHAR
STARTCHAR char15
ENCODING 15
SWIDTH 560 0
DWIDTH 7 0
BBX 7 12 0 -2
BITMAP
10
10
10
10
10
FE
10
10
10
10
10
10
ENDCHAR
STARTCHAR char16
ENCODING 16
SWIDTH 560 0
DWIDTH 7 0
BBX 7 12 0 -2
BITMAP
FE
00
00
00
00
00
00
00
00
00
00
00
ENDCHAR
STARTCHAR char17
ENCODING 17
SWIDTH 560 0
DWIDTH 7 0
BBX 7 12 0 -2
BITMAP
00
00
00
FE
00
00
00
00
00
00
00
00
ENDCHAR
STARTCHAR char18
ENCODING 18
SWIDTH 560 0
DWIDTH 7 0
BBX 7 12 0 -2
BITMAP
00
00
00
00
00
FE
00
00
00
00
00
00
ENDCHAR
STARTCHAR char19
ENCODING 19
SWIDTH 560 0
DWIDTH 7 0
BBX 7 12 0 -2
BITMAP
00
00
00
00
00
00
00
00
00
FE
00
00
ENDCHAR
STARTCHAR char20
ENCODING 20
SWIDTH 560 0
DWIDTH 7 0
BBX 7 12 0 -2
BITMAP
00
00
00
00
00
00
00
00
00
00
00
00
ENDCHAR
STARTCHAR char21
ENCODING 21
SWIDTH 560 0
DWIDTH 7 0
BBX 7 12 0 -2
BITMAP
10
10
10
10
10
1E
10
10
10
10
10
10
ENDCHAR
STARTCHAR char22
ENCODING 22
SWIDTH 560 0
DWIDTH 7 0
BBX 7 12 0 -2
BITMAP
10
10
10
10
10
F0
10
10
10
10
10
10
ENDCHAR
STARTCHAR char23
ENCODING 23
SWIDTH 560 0
DWIDTH 7 0
BBX 7 12 0 -2
BITMAP
10
10
10
10
10
FE
00
00
00
00
00
00
ENDCHAR
STARTCHAR char24
ENCODING 24
SWIDTH 560 0
DWIDTH 7 0
BBX 7 12 0 -2
BITMAP
00
00
00
00
00
FE
10
10
10
10
10
10
ENDCHAR
STARTCHAR char25
ENCODING 25
SWIDTH 560 0
DWIDTH 7 0
BBX 7 12 0 -2
BITMAP
10
10
10
10
10
10
10
10
10
10
10
10
ENDCHAR
STARTCHAR char26
ENCODING 26
SWIDTH 560 0
DWIDTH 7 0
BBX 7 12 0 -2
BITMAP
00
00
00
0C
30
C0
30
0C
00
FC
00
00
ENDCHAR
STARTCHAR char27
ENCODING 27
SWIDTH 560 0
DWIDTH 7 0
BBX 7 12 0 -2
BITMAP
00
00
00
60
18
06
18
60
00
7E
00
00
ENDCHAR
STARTCHAR char28
ENCODING 28
SWIDTH 560 0
DWIDTH 7 0
BBX 7 12 0 -2
BITMAP
00
00
00
00
7E
24
24
24
24
24
00
00
ENDCHAR
STARTCHAR char29
ENCODING 29
SWIDTH 560 0
DWIDTH 7 0
BBX 7 12 0 -2
BITMAP
00
00
04
08
7C
10
10
7C
20
40
00
00
ENDCHAR
STARTCHAR char30
ENCODING 30
SWIDTH 560 0
DWIDTH 7 0
BBX 7 12 0 -2
BITMAP
00
00
18
24
20
70
20
20
24
78
00
00
ENDCHAR
STARTCHAR char31
ENCODING 31
SWIDTH 560 0
DWIDTH 7 0
BBX 7 12 0 -2
BITMAP
00
00
00
00
00
38
00
00
00
00
00
00
ENDCHAR
STARTCHAR char32
ENCODING 32
SWIDTH 560 0
DWIDTH 7 0
BBX 7 12 0 -2
BITMAP
00
00
00
00
00
00
00
00
00
00
00
00
ENDCHAR
STARTCHAR char33
ENCODING 33
SWIDTH 560 0
DWIDTH 7 0
BBX 7 12 0 -2
BITMAP
00
10
10
10
10
10
10
00
10
10
00
00
ENDCHAR
STARTCHAR char34
ENCODING 34
SWIDTH 560 0
DWIDTH 7 0
BBX 7 12 0 -2
BITMAP
00
28
28
28
28
00
00
00
00
00
00
00
ENDCHAR
STARTCHAR char35
ENCODING 35
SWIDTH 560 0
DWIDTH 7 0
BBX 7 12 0 -2
BITMAP
00
00
28
28
7C
28
28
7C
28
28
00
00
ENDCHAR
STARTCHAR char36
ENCODING 36
SWIDTH 560 0
DWIDTH 7 0
BBX 7 12 0 -2
BITMAP
00
10
38
54
50
78
14
14
54
38
10
00
ENDCHAR
STARTCHAR char37
ENCODING 37
SWIDTH 560 0
DWIDTH 7 0
BBX 7 12 0 -2
BITMAP
00
00
44
A8
48
10
10
24
2A
44
00
00
ENDCHAR
STARTCHAR char38
ENCODING 38
SWIDTH 560 0
DWIDTH 7 0
BBX 7 12 0 -2
BITMAP
00
00
38
48
30
60
54
4C
48
3C
00
00
ENDCHAR
STARTCHAR char39
ENCODING 39
SWIDTH 560 0
DWIDTH 7 0
BBX 7 12 0 -2
BITMAP
00
10
10
10
10
00
00
00
00
00
00
00
ENDCHAR
STARTCHAR char40
ENCODING 40
SWIDTH 560 0
DWIDTH 7 0
BBX 7 12 0 -2
BITMAP
00
0C
18
30
30
30
30
30
30
18
0C
00
ENDCHAR
STARTCHAR char41
ENCODING 41
SWIDTH 560 0
DWIDTH 7 0
BBX 7 12 0 -2
BITMAP
00
60
30
18
18
18
18
18
18
30
60
00
ENDCHAR
STARTCHAR char42
ENCODING 42
SWIDTH 560 0
DWIDTH 7 0
BBX 7 12 0 -2
BITMAP
00
00
00
28
38
7C
38
28
00
00
00
00
ENDCHAR
STARTCHAR char43
ENCODING 43
SWIDTH 560 0
DWIDTH 7 0
BBX 7 12 0 -2
BITMAP
00
00
00
10
10
7C
10
10
00
00
00
00
ENDCHAR
STARTCHAR char44
ENCODING 44
SWIDTH 560 0
DWIDTH 7 0
BBX 7 12 0 -2
BITMAP
00
00
00
00
00
00
00
00
30
30
10
20
ENDCHAR
STARTCHAR char45
ENCODING 45
SWIDTH 560 0
DWIDTH 7 0
BBX 7 12 0 -2
BITMAP
00
00
00
00
00
7C
00
00
00
00
00
00
ENDCHAR
STARTCHAR char46
ENCODING 46
SWIDTH 560 0
DWIDTH 7 0
BBX 7 12 0 -2
BITMAP
00
00
00
00
00
00
00
00
30
30
00
00
ENDCHAR
STARTCHAR char47
ENCODING 47
SWIDTH 560 0
DWIDTH 7 0
BBX 7 12 0 -2
BITMAP
00
04
04
08
08
10
10
20
20
40
40
00
ENDCHAR
STARTCHAR char48
ENCODING 48
SWIDTH 560 0
DWIDTH 7 0
BBX 7 12 0 -2
BITMAP
00
00
3C
44
54
54
54
44
44
38
00
00
ENDCHAR
STARTCHAR char49
ENCODING 49
SWIDTH 560 0
DWIDTH 7 0
BBX 7 12 0 -2
BITMAP
00
00
08
18
28
08
08
08
08
38
00
00
ENDCHAR
STARTCHAR char50
ENCODING 50
SWIDTH 560 0
DWIDTH 7 0
BBX 7 12 0 -2
BITMAP
00
00
78
04
04
3C
40
40
40
7C
00
00
ENDCHAR
STARTCHAR char51
ENCODING 51
SWIDTH 560 0
DWIDTH 7 0
BBX 7 12 0 -2
BITMAP
00
00
78
04
04
3C
04
04
04
78
00
00
ENDCHAR
STARTCHAR char52
ENCODING 52
SWIDTH 560 0
DWIDTH 7 0
BBX 7 12 0 -2
BITMAP
00
00
44
44
44
3C
04
04
04
04
00
00
ENDCHAR
STARTCHAR char53
ENCODING 53
SWIDTH 560 0
DWIDTH 7 0
BBX 7 12 0 -2
BITMAP
00
00
7C
40
40
3C
04
04
44
38
00
00
ENDCHAR
STARTCHAR char54
ENCODING 54
SWIDTH 560 0
DWIDTH 7 0
BBX 7 12 0 -2
BITMAP
00
00
38
44
40
78
44
44
44
38
00
00
ENDCHAR
STARTCHAR char55
ENCODING 55
SWIDTH 560 0
DWIDTH 7 0
BBX 7 12 0 -2
BITMAP
00
00
78
04
08
10
20
20
20
20
00
00
ENDCHAR
STARTCHAR char56
ENCODING 56
SWIDTH 560 0
DWIDTH 7 0
BBX 7 12 0 -2
BITMAP
00
00
38
44
44
7C
44
44
44
38
00
00
ENDCHAR
STARTCHAR char57
ENCODING 57
SWIDTH 560 0
DWIDTH 7 0
BBX 7 12 0 -2
BITMAP
00
00
38
44
44
7C
04
04
44
38
00
00
ENDCHAR
STARTCHAR char58
ENCODING 58
SWIDTH 560 0
DWIDTH 7 0
BBX 7 12 0 -2
BITMAP
00
00
30
30
00
00
00
00
30
30
00
00
ENDCHAR
STARTCHAR char59
ENCODING 59
SWIDTH 560 0
DWIDTH 7 0
BBX 7 12 0 -2
BITMAP
00
00
30
30
00
00
00
00
30
30
10
20
ENDCHAR
STARTCHAR char60
ENCODING 60
SWIDTH 560 0
DWIDTH 7 0
BBX 7 12 0 -2
BITMAP
00
04
08
10
20
40
20
10
08
04
00
00
ENDCHAR
STARTCHAR char61
ENCODING 61
SWIDTH 560 0
DWIDTH 7 0
BBX 7 12 0 -2
BITMAP
00
00
00
00
7C
00
00
7C
00
00
00
00
ENDCHAR
STARTCHAR char62
ENCODING 62
SWIDTH 560 0
DWIDTH 7 0
BBX 7 12 0 -2
BITMAP
00
40
20
10
08
04
08
10
20
40
00
00
ENDCHAR
STARTCHAR char63
ENCODING 63
SWIDTH 560 0
DWIDTH 7 0
BBX 7 12 0 -2
BITMAP
00
00
3C
44
04
08
10
00
10
10
00
00
ENDCHAR
STARTCHAR char64
ENCODING 64
SWIDTH 560 0
DWIDTH 7 0
BBX 7 12 0 -2
BITMAP
00
00
78
44
5C
54
54
58
40
3C
00
00
ENDCHAR
STARTCHAR char65
ENCODING 65
SWIDTH 560 0
DWIDTH 7 0
BBX 7 12 0 -2
BITMAP
00
00
78
44
44
7C
44
44
44
44
00
00
ENDCHAR
STARTCHAR char66
ENCODING 66
SWIDTH 560 0
DWIDTH 7 0
BBX 7 12 0 -2
BITMAP
00
00
70
48
48
78
44
44
44
78
00
00
ENDCHAR
STARTCHAR char67
ENCODING 67
SWIDTH 560 0
DWIDTH 7 0
BBX 7 12 0 -2
BITMAP
00
00
38
44
40
40
40
40
44
78
00
00
ENDCHAR
STARTCHAR char68
ENCODING 68
SWIDTH 560 0
DWIDTH 7 0
BBX 7 12 0 -2
BITMAP
00
00
78
44
44
44
44
44
44
78
00
00
ENDCHAR
STARTCHAR char69
ENCODING 69
SWIDTH 560 0
DWIDTH 7 0
BBX 7 12 0 -2
BITMAP
00
00
3C
40
40
78
40
40
40
7C
00
00
ENDCHAR
STARTCHAR char70
ENCODING 70
SWIDTH 560 0
DWIDTH 7 0
BBX 7 12 0 -2
BITMAP
00
00
7C
40
40
78
40
40
40
40
00
00
ENDCHAR
STARTCHAR char71
ENCODING 71
SWIDTH 560 0
DWIDTH 7 0
BBX 7 12 0 -2
BITMAP
00
00
38
40
40
5C
44
44
44
78
00
00
ENDCHAR
STARTCHAR char72
ENCODING 72
SWIDTH 560 0
DWIDTH 7 0
BBX 7 12 0 -2
BITMAP
00
00
44
44
44
7C
44
44
44
44
00
00
ENDCHAR
STARTCHAR char73
ENCODING 73
SWIDTH 560 0
DWIDTH 7 0
BBX 7 12 0 -2
BITMAP
00
00
38
10
10
10
10
10
10
38
00
00
ENDCHAR
STARTCHAR char74
ENCODING 74
SWIDTH 560 0
DWIDTH 7 0
BBX 7 12 0 -2
BITMAP
00
00
0C
04
04
04
04
44
44
38
00
00
ENDCHAR
STARTCHAR char75
ENCODING 75
SWIDTH 560 0
DWIDTH 7 0
BBX 7 12 0 -2
BITMAP
00
00
44
48
50
70
48
44
44
44
00
00
ENDCHAR
STARTCHAR char76
ENCODING 76
SWIDTH 560 0
DWIDTH 7 0
BBX 7 12 0 -2
BITMAP
00
00
40
40
40
40
40
40
44
78
00
00
ENDCHAR
STARTCHAR char77
ENCODING 77
SWIDTH 560 0
DWIDTH 7 0
BBX 7 12 0 -2
BITMAP
00
00
78
54
54
54
54
44
44
44
00
00
ENDCHAR
STARTCHAR char78
ENCODING 78
SWIDTH 560 0
DWIDTH 7 0
BBX 7 12 0 -2
BITMAP
00
00
64
54
4C
44
44
44
44
44
00
00
ENDCHAR
STARTCHAR char79
ENCODING 79
SWIDTH 560 0
DWIDTH 7 0
BBX 7 12 0 -2
BITMAP
00
00
3C
44
44
44
44
44
44
38
00
00
ENDCHAR
STARTCHAR char80
ENCODING 80
SWIDTH 560 0
DWIDTH 7 0
BBX 7 12 0 -2
BITMAP
00
00
78
44
44
44
78
40
40
40
00
00
ENDCHAR
STARTCHAR char81
ENCODING 81
SWIDTH 560 0
DWIDTH 7 0
BBX 7 12 0 -2
BITMAP
00
00
38
44
44
44
44
54
4C
3C
04
00
ENDCHAR
STARTCHAR char82
ENCODING 82
SWIDTH 560 0
DWIDTH 7 0
BBX 7 12 0 -2
BITMAP
00
00
78
44
44
78
48
44
44
44
00
00
ENDCHAR
STARTCHAR char83
ENCODING 83
SWIDTH 560 0
DWIDTH 7 0
BBX 7 12 0 -2
BITMAP
00
00
38
44
40
78
04
04
44
38
00
00
ENDCHAR
STARTCHAR char84
ENCODING 84
SWIDTH 560 0
DWIDTH 7 0
BBX 7 12 0 -2
BITMAP
00
00
7C
10
10
10
10
10
10
10
00
00
ENDCHAR
STARTCHAR char85
ENCODING 85
SWIDTH 560 0
DWIDTH 7 0
BBX 7 12 0 -2
BITMAP
00
00
44
44
44
44
44
44
44
3C
00
00
ENDCHAR
STARTCHAR char86
ENCODING 86
SWIDTH 560 0
DWIDTH 7 0
BBX 7 12 0 -2
BITMAP
00
00
44
44
44
44
44
48
50
20
00
00
ENDCHAR
STARTCHAR char87
ENCODING 87
SWIDTH 560 0
DWIDTH 7 0
BBX 7 12 0 -2
BITMAP
00
00
44
44
44
54
54
54
54
3C
00
00
ENDCHAR
STARTCHAR char88
ENCODING 88
SWIDTH 560 0
DWIDTH 7 0
BBX 7 12 0 -2
BITMAP
00
00
44
44
28
10
28
44
44
44
00
00
ENDCHAR
STARTCHAR char89
ENCODING 89
SWIDTH 560 0
DWIDTH 7 0
BBX 7 12 0 -2
BITMAP
00
00
44
44
44
3C
04
04
44
3C
00
00
ENDCHAR
STARTCHAR char90
ENCODING 90
SWIDTH 560 0
DWIDTH 7 0
BBX 7 12 0 -2
BITMAP
00
00
7C
04
08
10
20
40
40
3C
00
00
ENDCHAR
STARTCHAR char91
ENCODING 91
SWIDTH 560 0
DWIDTH 7 0
BBX 7 12 0 -2
BITMAP
00
3C
30
30
30
30
30
30
30
30
3C
00
ENDCHAR
STARTCHAR char92
ENCODING 92
SWIDTH 560 0
DWIDTH 7 0
BBX 7 12 0 -2
BITMAP
00
40
40
20
20
10
10
08
08
04
04
00
ENDCHAR
STARTCHAR char93
ENCODING 93
SWIDTH 560 0
DWIDTH 7 0
BBX 7 12 0 -2
BITMAP
00
78
18
18
18
18
18
18
18
18
78
00
ENDCHAR
STARTCHAR char94
ENCODING 94
SWIDTH 560 0
DWIDTH 7 0
BBX 7 12 0 -2
BITMAP
00
38
44
44
00
00
00
00
00
00
00
00
ENDCHAR
STARTCHAR char95
ENCODING 95
SWIDTH 560 0
DWIDTH 7 0
BBX 7 12 0 -2
BITMAP
00
00
00
00
00
00
00
00
00
00
7C
00
ENDCHAR
STARTCHAR char96
ENCODING 96
SWIDTH 560 0
DWIDTH 7 0
BBX 7 12 0 -2
BITMAP
00
30
08
08
00
00
00
00
00
00
00
00
ENDCHAR
STARTCHAR char97
ENCODING 97
SWIDTH 560 0
DWIDTH 7 0
BBX 7 12 0 -2
BITMAP
00
00
00
00
38
04
3C
44
44
3C
00
00
ENDCHAR
STARTCHAR char98
ENCODING 98
SWIDTH 560 0
DWIDTH 7 0
BBX 7 12 0 -2
BITMAP
00
40
40
40
78
44
44
44
44
38
00
00
ENDCHAR
STARTCHAR char99
ENCODING 99
SWIDTH 560 0
DWIDTH 7 0
BBX 7 12 0 -2
BITMAP
00
00
00
00
38
44
40
40
44
78
00
00
ENDCHAR
STARTCHAR char100
ENCODING 100
SWIDTH 560 0
DWIDTH 7 0
BBX 7 12 0 -2
BITMAP
00
04
04
04
34
4C
44
44
44
3C
00
00
ENDCHAR
STARTCHAR char101
ENCODING 101
SWIDTH 560 0
DWIDTH 7 0
BBX 7 12 0 -2
BITMAP
00
00
00
00
38
44
7C
40
44
78
00
00
ENDCHAR
STARTCHAR char102
ENCODING 102
SWIDTH 560 0
DWIDTH 7 0
BBX 7 12 0 -2
BITMAP
00
1C
20
20
3C
20
20
20
20
20
00
00
ENDCHAR
STARTCHAR char103
ENCODING 103
SWIDTH 560 0
DWIDTH 7 0
BBX 7 12 0 -2
BITMAP
00
00
00
00
3C
44
44
44
44
3C
04
38
ENDCHAR
STARTCHAR char104
ENCODING 104
SWIDTH 560 0
DWIDTH 7 0
BBX 7 12 0 -2
BITMAP
00
40
40
40
78
44
44
44
44
44
00
00
ENDCHAR
STARTCHAR char105
ENCODING 105
SWIDTH 560 0
DWIDTH 7 0
BBX 7 12 0 -2
BITMAP
00
10
10
00
70
10
10
10
10
0C
00
00
ENDCHAR
STARTCHAR char106
ENCODING 106
SWIDTH 560 0
DWIDTH 7 0
BBX 7 12 0 -2
BITMAP
00
08
08
00
18
08
08
08
08
08
08
70
ENDCHAR
STARTCHAR char107
ENCODING 107
SWIDTH 560 0
DWIDTH 7 0
BBX 7 12 0 -2
BITMAP
00
40
40
40
44
48
70
48
44
44
00
00
ENDCHAR
STARTCHAR char108
ENCODING 108
SWIDTH 560 0
DWIDTH 7 0
BBX 7 12 0 -2
BITMAP
00
60
20
20
20
20
20
20
20
1C
00
00
ENDCHAR
STARTCHAR char109
ENCODING 109
SWIDTH 560 0
DWIDTH 7 0
BBX 7 12 0 -2
BITMAP
00
00
00
00
78
54
54
54
44
44
00
00
ENDCHAR
STARTCHAR char110
ENCODING 110
SWIDTH 560 0
DWIDTH 7 0
BBX 7 12 0 -2
BITMAP
00
00
00
00
78
44
44
44
44
44
00
00
ENDCHAR
STARTCHAR char111
ENCODING 111
SWIDTH 560 0
DWIDTH 7 0
BBX 7 12 0 -2
BITMAP
00
00
00
00
38
44
44
44
44
38
00
00
ENDCHAR
STARTCHAR char112
ENCODING 112
SWIDTH 560 0
DWIDTH 7 0
BBX 7 12 0 -2
BITMAP
00
00
00
00
78
44
44
44
44
78
40
40
ENDCHAR
STARTCHAR char113
ENCODING 113
SWIDTH 560 0
DWIDTH 7 0
BBX 7 12 0 -2
BITMAP
00
00
00
00
3C
44
44
44
44
3C
04
04
ENDCHAR
STARTCHAR char114
ENCODING 114
SWIDTH 560 0
DWIDTH 7 0
BBX 7 12 0 -2
BITMAP
00
00
00
00
78
44
40
40
40
40
00
00
ENDCHAR
STARTCHAR char115
ENCODING 115
SWIDTH 560 0
DWIDTH 7 0
BBX 7 12 0 -2
BITMAP
00
00
00
00
3C
40
78
04
04
78
00
00
ENDCHAR
STARTCHAR char116
ENCODING 116
SWIDTH 560 0
DWIDTH 7 0
BBX 7 12 0 -2
BITMAP
00
20
20
20
3C
20
20
20
20
1C
00
00
ENDCHAR
STARTCHAR char117
ENCODING 117
SWIDTH 560 0
DWIDTH 7 0
BBX 7 12 0 -2
BITMAP
00
00
00
00
44
44
44
44
44
3C
00
00
ENDCHAR
STARTCHAR char118
ENCODING 118
SWIDTH 560 0
DWIDTH 7 0
BBX 7 12 0 -2
BITMAP
00
00
00
00
44
44
44
48
50
20
00
00
ENDCHAR
STARTCHAR char119
ENCODING 119
SWIDTH 560 0
DWIDTH 7 0
BBX 7 12 0 -2
BITMAP
00
00
00
00
44
44
54
54
54
3C
00
00
ENDCHAR
STARTCHAR char120
ENCODING 120
SWIDTH 560 0
DWIDTH 7 0
BBX 7 12 0 -2
BITMAP
00
00
00
00
44
28
10
28
44
44
00
00
ENDCHAR
STARTCHAR char121
ENCODING 121
SWIDTH 560 0
DWIDTH 7 0
BBX 7 12 0 -2
BITMAP
00
00
00
00
44
44
44
44
44
3C
04
78
ENDCHAR
STARTCHAR char122
ENCODING 122
SWIDTH 560 0
DWIDTH 7 0
BBX 7 12 0 -2
BITMAP
00
00
00
00
7C
08
10
20
40
3C
00
00
ENDCHAR
STARTCHAR char123
ENCODING 123
SWIDTH 560 0
DWIDTH 7 0
BBX 7 12 0 -2
BITMAP
00
1C
30
30
30
60
30
30
30
30
1C
00
ENDCHAR
STARTCHAR char124
ENCODING 124
SWIDTH 560 0
DWIDTH 7 0
BBX 7 12 0 -2
BITMAP
10
10
10
10
10
10
10
10
10
10
10
10
ENDCHAR
STARTCHAR char125
ENCODING 125
SWIDTH 560 0
DWIDTH 7 0
BBX 7 12 0 -2
BITMAP
00
70
18
18
18
0C
18
18
18
18
70
00
ENDCHAR
STARTCHAR char126
ENCODING 126
SWIDTH 560 0
DWIDTH 7 0
BBX 7 12 0 -2
BITMAP
00
00
00
00
34
54
58
00
00
00
00
00
ENDCHAR
STARTCHAR char139
ENCODING 139
SWIDTH 560 0
DWIDTH 7 0
BBX 7 12 0 -2
BITMAP
00
00
00
08
10
20
10
08
00
00
00
00
ENDCHAR
STARTCHAR char149
ENCODING 149
SWIDTH 560 0
DWIDTH 7 0
BBX 7 12 0 -2
BITMAP
00
00
00
10
38
7C
38
10
00
00
00
00
ENDCHAR
STARTCHAR char150
ENCODING 150
SWIDTH 560 0
DWIDTH 7 0
BBX 7 12 0 -2
BITMAP
00
00
00
00
00
38
00
00
00
00
00
00
ENDCHAR
STARTCHAR char151
ENCODING 151
SWIDTH 560 0
DWIDTH 7 0
BBX 7 12 0 -2
BITMAP
00
00
00
00
00
7C
00
00
00
00
00
00
ENDCHAR
STARTCHAR char152
ENCODING 152
SWIDTH 560 0
DWIDTH 7 0
BBX 7 12 0 -2
BITMAP
00
00
34
58
00
00
00
00
00
00
00
00
ENDCHAR
STARTCHAR char153
ENCODING 153
SWIDTH 560 0
DWIDTH 7 0
BBX 7 12 0 -2
BITMAP
00
00
00
7C
2C
2C
00
00
00
00
00
00
ENDCHAR
STARTCHAR char155
ENCODING 155
SWIDTH 560 0
DWIDTH 7 0
BBX 7 12 0 -2
BITMAP
00
00
00
20
10
08
10
20
00
00
00
00
ENDCHAR
STARTCHAR char160
ENCODING 160
SWIDTH 560 0
DWIDTH 7 0
BBX 7 12 0 -2
BITMAP
00
00
00
00
00
00
00
00
00
00
00
00
ENDCHAR
STARTCHAR char161
ENCODING 161
SWIDTH 560 0
DWIDTH 7 0
BBX 7 12 0 -2
BITMAP
00
00
10
10
00
10
10
10
10
10
00
00
ENDCHAR
STARTCHAR char162
ENCODING 162
SWIDTH 560 0
DWIDTH 7 0
BBX 7 12 0 -2
BITMAP
00
00
10
38
54
50
50
54
78
10
00
00
ENDCHAR
STARTCHAR char163
ENCODING 163
SWIDTH 560 0
DWIDTH 7 0
BBX 7 12 0 -2
BITMAP
00
00
18
24
20
70
20
20
24
78
00
00
ENDCHAR
STARTCHAR char164
ENCODING 164
SWIDTH 560 0
DWIDTH 7 0
BBX 7 12 0 -2
BITMAP
00
00
00
00
44
38
28
28
38
44
00
00
ENDCHAR
STARTCHAR char165
ENCODING 165
SWIDTH 560 0
DWIDTH 7 0
BBX 7 12 0 -2
BITMAP
00
00
44
44
28
7C
10
7C
10
10
00
00
ENDCHAR
STARTCHAR char166
ENCODING 166
SWIDTH 560 0
DWIDTH 7 0
BBX 7 12 0 -2
BITMAP
00
10
10
10
10
00
00
10
10
10
10
00
ENDCHAR
STARTCHAR char167
ENCODING 167
SWIDTH 560 0
DWIDTH 7 0
BBX 7 12 0 -2
BITMAP
00
00
1C
20
38
24
24
1C
04
38
00
00
ENDCHAR
STARTCHAR char168
ENCODING 168
SWIDTH 560 0
DWIDTH 7 0
BBX 7 12 0 -2
BITMAP
00
00
28
28
28
00
00
00
00
00
00
00
ENDCHAR
STARTCHAR char169
ENCODING 169
SWIDTH 560 0
DWIDTH 7 0
BBX 7 12 0 -2
BITMAP
00
3E
42
5A
52
52
52
5A
42
3C
00
00
ENDCHAR
STARTCHAR char170
ENCODING 170
SWIDTH 560 0
DWIDTH 7 0
BBX 7 12 0 -2
BITMAP
00
18
04
1C
24
1C
00
3C
00
00
00
00
ENDCHAR
STARTCHAR char171
ENCODING 171
SWIDTH 560 0
DWIDTH 7 0
BBX 7 12 0 -2
BITMAP
00
00
00
14
28
50
28
14
00
00
00
00
ENDCHAR
STARTCHAR char172
ENCODING 172
SWIDTH 560 0
DWIDTH 7 0
BBX 7 12 0 -2
BITMAP
00
00
00
00
00
7C
04
04
00
00
00
00
ENDCHAR
STARTCHAR char173
ENCODING 173
SWIDTH 560 0
DWIDTH 7 0
BBX 7 12 0 -2
BITMAP
00
00
00
00
00
7C
00
00
00
00
00
00
ENDCHAR
STARTCHAR char174
ENCODING 174
SWIDTH 560 0
DWIDTH 7 0
BBX 7 12 0 -2
BITMAP
00
3E
42
5A
56
56
5A
56
42
3C
00
00
ENDCHAR
STARTCHAR char175
ENCODING 175
SWIDTH 560 0
DWIDTH 7 0
BBX 7 12 0 -2
BITMAP
00
7C
00
00
00
00
00
00
00
00
00
00
ENDCHAR
STARTCHAR char176
ENCODING 176
SWIDTH 560 0
DWIDTH 7 0
BBX 7 12 0 -2
BITMAP
00
00
30
48
48
30
00
00
00
00
00
00
ENDCHAR
STARTCHAR char177
ENCODING 177
SWIDTH 560 0
DWIDTH 7 0
BBX 7 12 0 -2
BITMAP
00
00
00
10
10
7C
10
10
00
7C
00
00
ENDCHAR
STARTCHAR char178
ENCODING 178
SWIDTH 560 0
DWIDTH 7 0
BBX 7 12 0 -2
BITMAP
00
60
10
30
40
40
70
00
00
00
00
00
ENDCHAR
STARTCHAR char179
ENCODING 179
SWIDTH 560 0
DWIDTH 7 0
BBX 7 12 0 -2
BITMAP
00
60
10
20
10
10
60
00
00
00
00
00
ENDCHAR
STARTCHAR char180
ENCODING 180
SWIDTH 560 0
DWIDTH 7 0
BBX 7 12 0 -2
BITMAP
00
08
10
20
00
00
00
00
00
00
00
00
ENDCHAR
STARTCHAR char181
ENCODING 181
SWIDTH 560 0
DWIDTH 7 0
BBX 7 12 0 -2
BITMAP
00
00
00
00
24
24
24
24
34
28
20
40
ENDCHAR
STARTCHAR char182
ENCODING 182
SWIDTH 560 0
DWIDTH 7 0
BBX 7 12 0 -2
BITMAP
00
00
00
38
64
64
64
24
24
24
00
00
ENDCHAR
STARTCHAR char183
ENCODING 183
SWIDTH 560 0
DWIDTH 7 0
BBX 7 12 0 -2
BITMAP
00
00
00
00
00
10
00
00
00
00
00
00
ENDCHAR
STARTCHAR char184
ENCODING 184
SWIDTH 560 0
DWIDTH 7 0
BBX 7 12 0 -2
BITMAP
00
00
00
00
00
00
00
00
00
30
30
00
ENDCHAR
STARTCHAR char185
ENCODING 185
SWIDTH 560 0
DWIDTH 7 0
BBX 7 12 0 -2
BITMAP
00
10
30
50
10
10
70
00
00
00
00
00
ENDCHAR
STARTCHAR char186
ENCODING 186
SWIDTH 560 0
DWIDTH 7 0
BBX 7 12 0 -2
BITMAP
00
00
30
48
48
30
00
78
00
00
00
00
ENDCHAR
STARTCHAR char187
ENCODING 187
SWIDTH 560 0
DWIDTH 7 0
BBX 7 12 0 -2
BITMAP
00
00
00
28
14
0A
14
28
00
00
00
00
ENDCHAR
STARTCHAR char188
ENCODING 188
SWIDTH 560 0
DWIDTH 7 0
BBX 7 12 0 -2
BITMAP
20
60
20
20
24
6C
14
1C
04
00
00
00
ENDCHAR
STARTCHAR char189
ENCODING 189
SWIDTH 560 0
DWIDTH 7 0
BBX 7 12 0 -2
BITMAP
20
60
20
20
2C
74
04
08
1E
00
00
00
ENDCHAR
STARTCHAR char190
ENCODING 190
SWIDTH 560 0
DWIDTH 7 0
BBX 7 12 0 -2
BITMAP
00
70
10
20
10
54
2C
14
1C
04
00
00
ENDCHAR
STARTCHAR char63
ENCODING 191
SWIDTH 560 0
DWIDTH 7 0
BBX 7 12 0 -2
BITMAP
00
00
10
10
00
10
08
04
44
3C
00
00
ENDCHAR
STARTCHAR char192
ENCODING 192
SWIDTH 560 0
DWIDTH 7 0
BBX 7 12 0 -2
BITMAP
00
00
20
10
10
10
28
38
44
44
00
00
ENDCHAR
STARTCHAR char193
ENCODING 193
SWIDTH 560 0
DWIDTH 7 0
BBX 7 12 0 -2
BITMAP
00
00
08
10
10
10
28
38
44
44
00
00
ENDCHAR
STARTCHAR char194
ENCODING 194
SWIDTH 560 0
DWIDTH 7 0
BBX 7 12 0 -2
BITMAP
00
00
10
28
00
10
28
38
44
44
00
00
ENDCHAR
STARTCHAR char195
ENCODING 195
SWIDTH 560 0
DWIDTH 7 0
BBX 7 12 0 -2
BITMAP
00
00
34
58
10
10
28
38
44
44
00
00
ENDCHAR
STARTCHAR char196
ENCODING 196
SWIDTH 560 0
DWIDTH 7 0
BBX 7 12 0 -2
BITMAP
00
00
28
00
10
10
28
38
44
44
00
00
ENDCHAR
STARTCHAR char197
ENCODING 197
SWIDTH 560 0
DWIDTH 7 0
BBX 7 12 0 -2
BITMAP
00
00
10
28
10
10
28
38
44
44
00
00
ENDCHAR
STARTCHAR char198
ENCODING 198
SWIDTH 560 0
DWIDTH 7 0
BBX 7 12 0 -2
BITMAP
00
00
00
00
1C
30
58
70
50
5C
00
00
ENDCHAR
STARTCHAR char199
ENCODING 199
SWIDTH 560 0
DWIDTH 7 0
BBX 7 12 0 -2
BITMAP
00
00
00
00
38
44
40
40
44
78
10
20
ENDCHAR
STARTCHAR char200
ENCODING 200
SWIDTH 560 0
DWIDTH 7 0
BBX 7 12 0 -2
BITMAP
00
00
20
10
3C
40
70
40
40
7C
00
00
ENDCHAR
STARTCHAR char201
ENCODING 201
SWIDTH 560 0
DWIDTH 7 0
BBX 7 12 0 -2
BITMAP
00
00
08
10
3C
40
70
40
40
7C
00
00
ENDCHAR
STARTCHAR char202
ENCODING 202
SWIDTH 560 0
DWIDTH 7 0
BBX 7 12 0 -2
BITMAP
00
00
10
28
3C
40
70
40
40
7C
00
00
ENDCHAR
STARTCHAR char203
ENCODING 203
SWIDTH 560 0
DWIDTH 7 0
BBX 7 12 0 -2
BITMAP
00
00
28
00
3C
40
70
40
40
7C
00
00
ENDCHAR
STARTCHAR char204
ENCODING 204
SWIDTH 560 0
DWIDTH 7 0
BBX 7 12 0 -2
BITMAP
00
00
20
10
38
10
10
10
10
38
00
00
ENDCHAR
STARTCHAR char205
ENCODING 205
SWIDTH 560 0
DWIDTH 7 0
BBX 7 12 0 -2
BITMAP
00
00
08
10
38
10
10
10
10
38
00
00
ENDCHAR
STARTCHAR char206
ENCODING 206
SWIDTH 560 0
DWIDTH 7 0
BBX 7 12 0 -2
BITMAP
00
00
10
28
38
10
10
10
10
38
00
00
ENDCHAR
STARTCHAR char207
ENCODING 207
SWIDTH 560 0
DWIDTH 7 0
BBX 7 12 0 -2
BITMAP
00
00
28
00
38
10
10
10
10
38
00
00
ENDCHAR
STARTCHAR char208
ENCODING 208
SWIDTH 560 0
DWIDTH 7 0
BBX 7 12 0 -2
BITMAP
00
00
00
00
30
28
74
24
28
30
00
00
ENDCHAR
STARTCHAR char209
ENCODING 209
SWIDTH 560 0
DWIDTH 7 0
BBX 7 12 0 -2
BITMAP
00
00
34
58
64
54
4C
44
44
44
00
00
ENDCHAR
STARTCHAR char210
ENCODING 210
SWIDTH 560 0
DWIDTH 7 0
BBX 7 12 0 -2
BITMAP
00
00
20
10
38
44
44
44
44
38
00
00
ENDCHAR
STARTCHAR char211
ENCODING 211
SWIDTH 560 0
DWIDTH 7 0
BBX 7 12 0 -2
BITMAP
00
00
08
10
38
44
44
44
44
38
00
00
ENDCHAR
STARTCHAR char212
ENCODING 212
SWIDTH 560 0
DWIDTH 7 0
BBX 7 12 0 -2
BITMAP
00
00
10
28
38
44
44
44
44
38
00
00
ENDCHAR
STARTCHAR char213
ENCODING 213
SWIDTH 560 0
DWIDTH 7 0
BBX 7 12 0 -2
BITMAP
00
00
34
58
38
44
44
44
44
38
00
00
ENDCHAR
STARTCHAR char214
ENCODING 214
SWIDTH 560 0
DWIDTH 7 0
BBX 7 12 0 -2
BITMAP
00
00
28
00
38
44
44
44
44
38
00
00
ENDCHAR
STARTCHAR char215
ENCODING 215
SWIDTH 560 0
DWIDTH 7 0
BBX 7 12 0 -2
BITMAP
00
00
00
00
44
28
10
28
44
00
00
00
ENDCHAR
STARTCHAR char216
ENCODING 216
SWIDTH 560 0
DWIDTH 7 0
BBX 7 12 0 -2
BITMAP
00
00
00
04
38
4C
54
54
64
38
40
00
ENDCHAR
STARTCHAR char217
ENCODING 217
SWIDTH 560 0
DWIDTH 7 0
BBX 7 12 0 -2
BITMAP
00
00
20
10
44
44
44
44
44
3C
00
00
ENDCHAR
STARTCHAR char218
ENCODING 218
SWIDTH 560 0
DWIDTH 7 0
BBX 7 12 0 -2
BITMAP
00
00
08
10
44
44
44
44
44
3C
00
00
ENDCHAR
STARTCHAR char219
ENCODING 219
SWIDTH 560 0
DWIDTH 7 0
BBX 7 12 0 -2
BITMAP
00
00
10
28
44
44
44
44
44
3C
00
00
ENDCHAR
STARTCHAR char220
ENCODING 220
SWIDTH 560 0
DWIDTH 7 0
BBX 7 12 0 -2
BITMAP
00
00
28
00
44
44
44
44
44
3C
00
00
ENDCHAR
STARTCHAR char221
ENCODING 221
SWIDTH 560 0
DWIDTH 7 0
BBX 7 12 0 -2
BITMAP
00
00
08
10
44
44
28
10
10
10
00
00
ENDCHAR
STARTCHAR char222
ENCODING 222
SWIDTH 560 0
DWIDTH 7 0
BBX 7 12 0 -2
BITMAP
00
00
00
00
40
78
44
44
78
40
00
00
ENDCHAR
STARTCHAR char223
ENCODING 223
SWIDTH 560 0
DWIDTH 7 0
BBX 7 12 0 -2
BITMAP
00
00
00
00
30
48
50
4C
44
58
00
00
ENDCHAR
STARTCHAR char224
ENCODING 224
SWIDTH 560 0
DWIDTH 7 0
BBX 7 12 0 -2
BITMAP
00
00
20
10
00
38
04
3C
44
3C
00
00
ENDCHAR
STARTCHAR char225
ENCODING 225
SWIDTH 560 0
DWIDTH 7 0
BBX 7 12 0 -2
BITMAP
00
00
08
10
00
38
04
3C
44
3C
00
00
ENDCHAR
STARTCHAR char226
ENCODING 226
SWIDTH 560 0
DWIDTH 7 0
BBX 7 12 0 -2
BITMAP
00
00
10
28
00
38
04
3C
44
3C
00
00
ENDCHAR
STARTCHAR char227
ENCODING 227
SWIDTH 560 0
DWIDTH 7 0
BBX 7 12 0 -2
BITMAP
00
00
34
58
00
38
04
3C
44
3C
00
00
ENDCHAR
STARTCHAR char228
ENCODING 228
SWIDTH 560 0
DWIDTH 7 0
BBX 7 12 0 -2
BITMAP
00
00
00
28
00
38
04
3C
44
3C
00
00
ENDCHAR
STARTCHAR char229
ENCODING 229
SWIDTH 560 0
DWIDTH 7 0
BBX 7 12 0 -2
BITMAP
00
00
10
28
10
38
04
3C
44
3C
00
00
ENDCHAR
STARTCHAR char230
ENCODING 230
SWIDTH 560 0
DWIDTH 7 0
BBX 7 12 0 -2
BITMAP
00
00
00
00
00
78
14
7C
50
2C
00
00
ENDCHAR
STARTCHAR char231
ENCODING 231
SWIDTH 560 0
DWIDTH 7 0
BBX 7 12 0 -2
BITMAP
00
00
00
00
00
38
40
40
40
7C
10
20
ENDCHAR
STARTCHAR char232
ENCODING 232
SWIDTH 560 0
DWIDTH 7 0
BBX 7 12 0 -2
BITMAP
00
00
20
10
00
38
44
78
40
7C
00
00
ENDCHAR
STARTCHAR char233
ENCODING 233
SWIDTH 560 0
DWIDTH 7 0
BBX 7 12 0 -2
BITMAP
00
00
08
10
00
38
44
78
40
7C
00
00
ENDCHAR
STARTCHAR char234
ENCODING 234
SWIDTH 560 0
DWIDTH 7 0
BBX 7 12 0 -2
BITMAP
00
00
10
28
00
38
44
78
40
7C
00
00
ENDCHAR
STARTCHAR char235
ENCODING 235
SWIDTH 560 0
DWIDTH 7 0
BBX 7 12 0 -2
BITMAP
00
00
00
28
00
38
44
78
40
7C
00
00
ENDCHAR
STARTCHAR char236
ENCODING 236
SWIDTH 560 0
DWIDTH 7 0
BBX 7 12 0 -2
BITMAP
00
00
20
10
00
30
10
10
10
38
00
00
ENDCHAR
STARTCHAR char237
ENCODING 237
SWIDTH 560 0
DWIDTH 7 0
BBX 7 12 0 -2
BITMAP
00
00
08
10
00
30
10
10
10
38
00
00
ENDCHAR
STARTCHAR char238
ENCODING 238
SWIDTH 560 0
DWIDTH 7 0
BBX 7 12 0 -2
BITMAP
00
00
10
28
00
30
10
10
10
38
00
00
ENDCHAR
STARTCHAR char239
ENCODING 239
SWIDTH 560 0
DWIDTH 7 0
BBX 7 12 0 -2
BITMAP
00
00
00
28
00
30
10
10
10
38
00
00
ENDCHAR
STARTCHAR char240
ENCODING 240
SWIDTH 560 0
DWIDTH 7 0
BBX 7 12 0 -2
BITMAP
00
00
00
28
30
08
38
44
44
38
00
00
ENDCHAR
STARTCHAR char241
ENCODING 241
SWIDTH 560 0
DWIDTH 7 0
BBX 7 12 0 -2
BITMAP
00
00
34
58
00
78
44
44
44
44
00
00
ENDCHAR
STARTCHAR char242
ENCODING 242
SWIDTH 560 0
DWIDTH 7 0
BBX 7 12 0 -2
BITMAP
00
00
20
10
00
38
44
44
44
38
00
00
ENDCHAR
STARTCHAR char243
ENCODING 243
SWIDTH 560 0
DWIDTH 7 0
BBX 7 12 0 -2
BITMAP
00
00
08
10
00
38
44
44
44
38
00
00
ENDCHAR
STARTCHAR char244
ENCODING 244
SWIDTH 560 0
DWIDTH 7 0
BBX 7 12 0 -2
BITMAP
00
00
10
28
00
38
44
44
44
38
00
00
ENDCHAR
STARTCHAR char245
ENCODING 245
SWIDTH 560 0
DWIDTH 7 0
BBX 7 12 0 -2
BITMAP
00
00
34
58
00
38
44
44
44
38
00
00
ENDCHAR
STARTCHAR char246
ENCODING 246
SWIDTH 560 0
DWIDTH 7 0
BBX 7 12 0 -2
BITMAP
00
00
00
28
00
38
44
44
44
38
00
00
ENDCHAR
STARTCHAR char247
ENCODING 247
SWIDTH 560 0
DWIDTH 7 0
BBX 7 12 0 -2
BITMAP
00
00
00
10
00
7C
00
10
00
00
00
00
ENDCHAR
STARTCHAR char248
ENCODING 248
SWIDTH 560 0
DWIDTH 7 0
BBX 7 12 0 -2
BITMAP
00
00
00
00
04
38
4C
54
64
38
40
00
ENDCHAR
STARTCHAR char249
ENCODING 249
SWIDTH 560 0
DWIDTH 7 0
BBX 7 12 0 -2
BITMAP
00
00
20
10
00
44
44
44
44
3C
00
00
ENDCHAR
STARTCHAR char250
ENCODING 250
SWIDTH 560 0
DWIDTH 7 0
BBX 7 12 0 -2
BITMAP
00
00
08
10
00
44
44
44
44
3C
00
00
ENDCHAR
STARTCHAR char251
ENCODING 251
SWIDTH 560 0
DWIDTH 7 0
BBX 7 12 0 -2
BITMAP
00
00
10
28
00
44
44
44
44
3C
00
00
ENDCHAR
STARTCHAR char252
ENCODING 252
SWIDTH 560 0
DWIDTH 7 0
BBX 7 12 0 -2
BITMAP
00
00
00
28
00
44
44
44
44
3C
00
00
ENDCHAR
STARTCHAR char253
ENCODING 253
SWIDTH 560 0
DWIDTH 7 0
BBX 7 12 0 -2
BITMAP
00
00
08
10
00
44
44
44
44
3C
04
38
ENDCHAR
STARTCHAR char254
ENCODING 254
SWIDTH 560 0
DWIDTH 7 0
BBX 7 12 0 -2
BITMAP
00
00
00
40
40
78
44
44
44
78
40
40
ENDCHAR
STARTCHAR char255
ENCODING 255
SWIDTH 560 0
DWIDTH 7 0
BBX 7 12 0 -2
BITMAP
00
00
00
28
00
44
44
44
44
3C
04
38
ENDCHAR
STARTCHAR char9763
ENCODING 582
SWIDTH 560 0
DWIDTH 7 0
BBX 7 12 0 -2
BITMAP
00
00
10
7C
50
78
50
50
7C
10
00
00
ENDCHAR
STARTCHAR char4054
ENCODING 4054
SWIDTH 560 0
DWIDTH 7 0
BBX 7 12 0 -2
BITMAP
00
00
00
F2
12
12
FE
90
90
9E
00
00
ENDCHAR
STARTCHAR char7472
ENCODING 7472
SWIDTH 560 0
DWIDTH 7 0
BBX 7 12 0 -2
BITMAP
00
78
44
44
44
44
44
78
00
00
00
00
ENDCHAR
STARTCHAR char7476
ENCODING 7476
SWIDTH 560 0
DWIDTH 7 0
BBX 7 12 0 -2
BITMAP
00
44
44
44
7C
44
44
44
00
00
00
00
ENDCHAR
STARTCHAR char8208
ENCODING 8208
SWIDTH 560 0
DWIDTH 7 0
BBX 7 12 0 -2
BITMAP
00
00
00
00
00
38
00
00
00
00
00
00
ENDCHAR
STARTCHAR char8209
ENCODING 8209
SWIDTH 560 0
DWIDTH 7 0
BBX 7 12 0 -2
BITMAP
00
00
00
00
00
38
00
00
00
00
00
00
ENDCHAR
STARTCHAR char8210
ENCODING 8210
SWIDTH 560 0
DWIDTH 7 0
BBX 7 12 0 -2
BITMAP
00
00
00
00
00
7C
00
00
00
00
00
00
ENDCHAR
STARTCHAR char8211
ENCODING 8211
SWIDTH 560 0
DWIDTH 7 0
BBX 7 12 0 -2
BITMAP
00
00
00
00
00
7C
00
00
00
00
00
00
ENDCHAR
STARTCHAR char8212
ENCODING 8212
SWIDTH 560 0
DWIDTH 7 0
BBX 7 12 0 -2
BITMAP
00
00
00
00
00
FE
00
00
00
00
00
00
ENDCHAR
STARTCHAR char8213
ENCODING 8213
SWIDTH 560 0
DWIDTH 7 0
BBX 7 12 0 -2
BITMAP
00
00
00
00
00
FE
00
00
00
00
00
00
ENDCHAR
STARTCHAR char8227
ENCODING 8227
SWIDTH 560 0
DWIDTH 7 0
BBX 7 12 0 -2
BITMAP
00
00
60
10
48
04
48
10
60
00
00
00
ENDCHAR
STARTCHAR char8230
ENCODING 8230
SWIDTH 560 0
DWIDTH 7 0
BBX 7 12 0 -2
BITMAP
00
00
00
00
00
00
00
00
00
DA
00
00
ENDCHAR
STARTCHAR char8231
ENCODING 8231
SWIDTH 560 0
DWIDTH 7 0
BBX 7 12 0 -2
BITMAP
00
00
00
00
00
00
10
00
00
00
00
00
ENDCHAR
STARTCHAR char8249
ENCODING 8249
SWIDTH 560 0
DWIDTH 7 0
BBX 7 12 0 -2
BITMAP
00
00
08
10
24
48
24
10
08
00
00
00
ENDCHAR
STARTCHAR char8227
ENCODING 8250
SWIDTH 560 0
DWIDTH 7 0
BBX 7 12 0 -2
BITMAP
00
00
20
10
48
24
48
10
20
00
00
00
ENDCHAR
STARTCHAR char8304
ENCODING 8304
SWIDTH 560 0
DWIDTH 7 0
BBX 7 12 0 -2
BITMAP
00
30
48
48
48
48
30
00
00
00
00
00
ENDCHAR
STARTCHAR char8305
ENCODING 8305
SWIDTH 560 0
DWIDTH 7 0
BBX 7 12 0 -2
BITMAP
10
10
00
30
10
10
0C
00
00
00
00
00
ENDCHAR
STARTCHAR char8308
ENCODING 8308
SWIDTH 560 0
DWIDTH 7 0
BBX 7 12 0 -2
BITMAP
00
50
50
30
10
10
10
00
00
00
00
00
ENDCHAR
STARTCHAR char8309
ENCODING 8309
SWIDTH 560 0
DWIDTH 7 0
BBX 7 12 0 -2
BITMAP
00
70
40
60
10
50
20
00
00
00
00
00
ENDCHAR
STARTCHAR char8310
ENCODING 8310
SWIDTH 560 0
DWIDTH 7 0
BBX 7 12 0 -2
BITMAP
00
30
40
60
50
50
20
00
00
00
00
00
ENDCHAR
STARTCHAR char8311
ENCODING 8311
SWIDTH 560 0
DWIDTH 7 0
BBX 7 12 0 -2
BITMAP
00
60
10
20
20
20
20
00
00
00
00
00
ENDCHAR
STARTCHAR char8312
ENCODING 8312
SWIDTH 560 0
DWIDTH 7 0
BBX 7 12 0 -2
BITMAP
00
20
50
70
50
50
20
00
00
00
00
00
ENDCHAR
STARTCHAR char8313
ENCODING 8313
SWIDTH 560 0
DWIDTH 7 0
BBX 7 12 0 -2
BITMAP
00
20
50
70
10
50
20
00
00
00
00
00
ENDCHAR
STARTCHAR char8364
ENCODING 8364
SWIDTH 560 0
DWIDTH 7 0
BBX 7 12 0 -2
BITMAP
00
0E
12
20
FC
20
FC
20
12
0E
00
00
ENDCHAR
STARTCHAR char8482
ENCODING 8482
SWIDTH 560 0
DWIDTH 7 0
BBX 7 12 0 -2
BITMAP
00
EE
56
56
56
56
00
00
00
00
00
00
ENDCHAR
STARTCHAR char8592
ENCODING 8592
SWIDTH 560 0
DWIDTH 7 0
BBX 7 12 0 -2
BITMAP
00
00
00
20
40
FE
40
20
00
00
00
00
ENDCHAR
STARTCHAR char8593
ENCODING 8593
SWIDTH 560 0
DWIDTH 7 0
BBX 7 12 0 -2
BITMAP
00
00
10
38
54
10
10
10
10
00
00
00
ENDCHAR
STARTCHAR char8594
ENCODING 8594
SWIDTH 560 0
DWIDTH 7 0
BBX 7 12 0 -2
BITMAP
00
00
00
08
04
FE
04
08
00
00
00
00
ENDCHAR
STARTCHAR char8595
ENCODING 8595
SWIDTH 560 0
DWIDTH 7 0
BBX 7 12 0 -2
BITMAP
00
00
10
10
10
10
54
38
10
00
00
00
ENDCHAR
STARTCHAR char8596
ENCODING 8596
SWIDTH 560 0
DWIDTH 7 0
BBX 7 12 0 -2
BITMAP
00
00
00
28
44
FE
44
28
00
00
00
00
ENDCHAR
STARTCHAR char8597
ENCODING 8597
SWIDTH 560 0
DWIDTH 7 0
BBX 7 12 0 -2
BITMAP
00
00
10
38
54
10
54
38
10
00
00
00
ENDCHAR
STARTCHAR char8598
ENCODING 8598
SWIDTH 560 0
DWIDTH 7 0
BBX 7 12 0 -2
BITMAP
00
00
00
70
60
50
08
04
00
00
00
00
ENDCHAR
STARTCHAR char8599
ENCODING 8599
SWIDTH 560 0
DWIDTH 7 0
BBX 7 12 0 -2
BITMAP
00
00
00
1C
0C
14
20
40
00
00
00
00
ENDCHAR
STARTCHAR char8600
ENCODING 8600
SWIDTH 560 0
DWIDTH 7 0
BBX 7 12 0 -2
BITMAP
00
00
00
40
20
14
0C
1C
00
00
00
00
ENDCHAR
STARTCHAR char8601
ENCODING 8601
SWIDTH 560 0
DWIDTH 7 0
BBX 7 12 0 -2
BITMAP
00
00
00
04
08
50
60
70
00
00
00
00
ENDCHAR
STARTCHAR char8610
ENCODING 8610
SWIDTH 560 0
DWIDTH 7 0
BBX 7 12 0 -2
BITMAP
00
00
00
22
44
F8
44
22
00
00
00
00
ENDCHAR
STARTCHAR char8611
ENCODING 8611
SWIDTH 560 0
DWIDTH 7 0
BBX 7 12 0 -2
BITMAP
00
00
00
88
44
3E
44
88
00
00
00
00
ENDCHAR
STARTCHAR char8618
ENCODING 8618
SWIDTH 560 0
DWIDTH 7 0
BBX 7 12 0 -2
BITMAP
00
40
40
40
48
4C
3E
0C
08
00
00
00
ENDCHAR
STARTCHAR char8633
ENCODING 8633
SWIDTH 560 0
DWIDTH 7 0
BBX 7 12 0 -2
BITMAP
00
80
A0
FE
A0
82
0A
FE
0A
02
00
00
ENDCHAR
STARTCHAR char8636
ENCODING 8636
SWIDTH 560 0
DWIDTH 7 0
BBX 7 12 0 -2
BITMAP
00
00
00
10
20
7C
00
00
00
00
00
00
ENDCHAR
STARTCHAR char8637
ENCODING 8637
SWIDTH 560 0
DWIDTH 7 0
BBX 7 12 0 -2
BITMAP
00
00
00
00
00
7C
20
10
00
00
00
00
ENDCHAR
STARTCHAR char8638
ENCODING 8638
SWIDTH 560 0
DWIDTH 7 0
BBX 7 12 0 -2
BITMAP
00
00
00
10
18
14
10
10
00
00
00
00
ENDCHAR
STARTCHAR char8639
ENCODING 8639
SWIDTH 560 0
DWIDTH 7 0
BBX 7 12 0 -2
BITMAP
00
00
00
10
30
50
10
10
00
00
00
00
ENDCHAR
STARTCHAR char8640
ENCODING 8640
SWIDTH 560 0
DWIDTH 7 0
BBX 7 12 0 -2
BITMAP
00
00
00
10
08
7C
00
00
00
00
00
00
ENDCHAR
STARTCHAR char8641
ENCODING 8641
SWIDTH 560 0
DWIDTH 7 0
BBX 7 12 0 -2
BITMAP
00
00
00
00
00
7C
08
10
00
00
00
00
ENDCHAR
STARTCHAR char8642
ENCODING 8642
SWIDTH 560 0
DWIDTH 7 0
BBX 7 12 0 -2
BITMAP
00
00
00
10
10
14
18
10
00
00
00
00
ENDCHAR
STARTCHAR char8643
ENCODING 8643
SWIDTH 560 0
DWIDTH 7 0
BBX 7 12 0 -2
BITMAP
00
00
00
10
10
50
30
10
00
00
00
00
ENDCHAR
STARTCHAR char8644
ENCODING 8644
SWIDTH 560 0
DWIDTH 7 0
BBX 7 12 0 -2
BITMAP
00
10
08
7C
08
10
20
7C
20
10
00
00
ENDCHAR
STARTCHAR char8645
ENCODING 8645
SWIDTH 560 0
DWIDTH 7 0
BBX 7 12 0 -2
BITMAP
00
00
48
E8
48
48
48
5C
48
00
00
00
ENDCHAR
STARTCHAR char8646
ENCODING 8646
SWIDTH 560 0
DWIDTH 7 0
BBX 7 12 0 -2
BITMAP
00
10
20
7C
20
10
08
7C
08
10
00
00
ENDCHAR
STARTCHAR char8647
ENCODING 8647
SWIDTH 560 0
DWIDTH 7 0
BBX 7 12 0 -2
BITMAP
00
10
20
7C
20
10
20
7C
20
10
00
00
ENDCHAR
STARTCHAR char8648
ENCODING 8648
SWIDTH 560 0
DWIDTH 7 0
BBX 7 12 0 -2
BITMAP
00
00
48
FC
48
48
48
48
48
00
00
00
ENDCHAR
STARTCHAR char8649
ENCODING 8649
SWIDTH 560 0
DWIDTH 7 0
BBX 7 12 0 -2
BITMAP
00
10
08
7C
08
10
08
7C
08
10
00
00
ENDCHAR
STARTCHAR char8650
ENCODING 8650
SWIDTH 560 0
DWIDTH 7 0
BBX 7 12 0 -2
BITMAP
00
00
48
48
48
48
48
FC
48
00
00
00
ENDCHAR
STARTCHAR char8651
ENCODING 8651
SWIDTH 560 0
DWIDTH 7 0
BBX 7 12 0 -2
BITMAP
00
00
10
20
7C
00
7C
08
10
00
00
00
ENDCHAR
STARTCHAR char8652
ENCODING 8652
SWIDTH 560 0
DWIDTH 7 0
BBX 7 12 0 -2
BITMAP
00
00
10
08
7C
00
7C
20
10
00
00
00
ENDCHAR
STARTCHAR char8674
ENCODING 8674
SWIDTH 560 0
DWIDTH 7 0
BBX 7 12 0 -2
BITMAP
00
00
00
00
10
08
A4
08
10
00
00
00
ENDCHAR
STARTCHAR char8678
ENCODING 8678
SWIDTH 560 0
DWIDTH 7 0
BBX 7 12 0 -2
BITMAP
00
00
10
30
7E
FE
7E
30
10
00
00
00
ENDCHAR
STARTCHAR char8679
ENCODING 8679
SWIDTH 560 0
DWIDTH 7 0
BBX 7 12 0 -2
BITMAP
00
10
38
7C
FE
38
38
38
38
38
38
00
ENDCHAR
STARTCHAR char8680
ENCODING 8680
SWIDTH 560 0
DWIDTH 7 0
BBX 7 12 0 -2
BITMAP
00
00
10
18
FC
FE
FC
18
10
00
00
00
ENDCHAR
STARTCHAR char8681
ENCODING 8681
SWIDTH 560 0
DWIDTH 7 0
BBX 7 12 0 -2
BITMAP
00
38
38
38
38
38
38
FE
7C
38
10
00
ENDCHAR
STARTCHAR char8682
ENCODING 8682
SWIDTH 560 0
DWIDTH 7 0
BBX 7 12 0 -2
BITMAP
00
10
38
7C
FE
38
38
00
00
38
38
00
ENDCHAR
STARTCHAR char8734
ENCODING 8734
SWIDTH 560 0
DWIDTH 7 0
BBX 7 12 0 -2
BITMAP
00
00
00
00
6C
92
92
6C
00
00
00
00
ENDCHAR
STARTCHAR char8882
ENCODING 8882
SWIDTH 560 0
DWIDTH 7 0
BBX 7 12 0 -2
BITMAP
00
00
0C
14
24
44
24
14
0C
00
00
00
ENDCHAR
STARTCHAR char8883
ENCODING 8883
SWIDTH 560 0
DWIDTH 7 0
BBX 7 12 0 -2
BITMAP
00
00
60
50
48
44
48
50
60
00
00
00
ENDCHAR
STARTCHAR char8920
ENCODING 8920
SWIDTH 560 0
DWIDTH 7 0
BBX 7 12 0 -2
BITMAP
00
00
00
2A
54
A8
54
2A
00
00
00
00
ENDCHAR
STARTCHAR char8921
ENCODING 8921
SWIDTH 560 0
DWIDTH 7 0
BBX 7 12 0 -2
BITMAP
00
00
00
A8
54
2A
54
A8
00
00
00
00
ENDCHAR
STARTCHAR char8942
ENCODING 8942
SWIDTH 560 0
DWIDTH 7 0
BBX 7 12 0 -2
BITMAP
00
10
10
00
00
10
10
00
00
10
10
00
ENDCHAR
STARTCHAR char8943
ENCODING 8943
SWIDTH 560 0
DWIDTH 7 0
BBX 7 12 0 -2
BITMAP
00
00
00
00
00
00
92
00
00
00
00
00
ENDCHAR
STARTCHAR char8944
ENCODING 8944
SWIDTH 560 0
DWIDTH 7 0
BBX 7 12 0 -2
BITMAP
00
04
04
00
00
10
10
00
00
40
40
00
ENDCHAR
STARTCHAR char8945
ENCODING 8945
SWIDTH 560 0
DWIDTH 7 0
BBX 7 12 0 -2
BITMAP
00
40
40
00
00
10
10
00
00
04
04
00
ENDCHAR
STARTCHAR char8976
ENCODING 8976
SWIDTH 560 0
DWIDTH 7 0
BBX 7 12 0 -2
BITMAP
00
00
00
00
00
1E
10
10
10
10
10
10
ENDCHAR
STARTCHAR char8982
ENCODING 8982
SWIDTH 560 0
DWIDTH 7 0
BBX 7 12 0 -2
BITMAP
00
00
10
7C
54
FE
54
7C
10
00
00
00
ENDCHAR
STARTCHAR char8987
ENCODING 8987
SWIDTH 560 0
DWIDTH 7 0
BBX 7 12 0 -2
BITMAP
00
7C
44
44
38
10
28
44
7C
7C
00
00
ENDCHAR
STARTCHAR char9007
ENCODING 9007
SWIDTH 560 0
DWIDTH 7 0
BBX 7 12 0 -2
BITMAP
00
00
00
38
00
FE
00
38
00
00
00
00
ENDCHAR
STARTCHAR char9015
ENCODING 9015
SWIDTH 560 0
DWIDTH 7 0
BBX 7 12 0 -2
BITMAP
00
7C
44
44
44
44
44
44
44
44
7C
00
ENDCHAR
STARTCHAR char9016
ENCODING 9016
SWIDTH 560 0
DWIDTH 7 0
BBX 7 12 0 -2
BITMAP
FC
84
84
84
84
84
84
84
84
84
FC
00
ENDCHAR
STARTCHAR char9096
ENCODING 9096
SWIDTH 560 0
DWIDTH 7 0
BBX 7 12 0 -2
BITMAP
00
00
00
54
38
7C
38
54
00
00
00
00
ENDCHAR
STARTCHAR char9115
ENCODING 9115
SWIDTH 560 0
DWIDTH 7 0
BBX 7 12 0 -2
BITMAP
02
04
08
08
10
10
10
10
10
10
10
10
ENDCHAR
STARTCHAR char9116
ENCODING 9116
SWIDTH 560 0
DWIDTH 7 0
BBX 7 12 0 -2
BITMAP
10
10
10
10
10
10
10
10
10
10
10
10
ENDCHAR
STARTCHAR char9117
ENCODING 9117
SWIDTH 560 0
DWIDTH 7 0
BBX 7 12 0 -2
BITMAP
10
10
10
10
10
10
10
10
08
08
04
02
ENDCHAR
STARTCHAR char9118
ENCODING 9118
SWIDTH 560 0
DWIDTH 7 0
BBX 7 12 0 -2
BITMAP
80
40
20
20
10
10
10
10
10
10
10
10
ENDCHAR
STARTCHAR char9119
ENCODING 9119
SWIDTH 560 0
DWIDTH 7 0
BBX 7 12 0 -2
BITMAP
10
10
10
10
10
10
10
10
10
10
10
10
ENDCHAR
STARTCHAR char9120
ENCODING 9120
SWIDTH 560 0
DWIDTH 7 0
BBX 7 12 0 -2
BITMAP
10
10
10
10
10
10
10
10
20
20
40
80
ENDCHAR
STARTCHAR char9121
ENCODING 9121
SWIDTH 560 0
DWIDTH 7 0
BBX 7 12 0 -2
BITMAP
1E
10
10
10
10
10
10
10
10
10
10
10
ENDCHAR
STARTCHAR char9122
ENCODING 9122
SWIDTH 560 0
DWIDTH 7 0
BBX 7 12 0 -2
BITMAP
10
10
10
10
10
10
10
10
10
10
10
10
ENDCHAR
STARTCHAR char9123
ENCODING 9123
SWIDTH 560 0
DWIDTH 7 0
BBX 7 12 0 -2
BITMAP
10
10
10
10
10
10
10
10
10
10
10
1E
ENDCHAR
STARTCHAR char9124
ENCODING 9124
SWIDTH 560 0
DWIDTH 7 0
BBX 7 12 0 -2
BITMAP
F0
10
10
10
10
10
10
10
10
10
10
10
ENDCHAR
STARTCHAR char9125
ENCODING 9125
SWIDTH 560 0
DWIDTH 7 0
BBX 7 12 0 -2
BITMAP
10
10
10
10
10
10
10
10
10
10
10
10
ENDCHAR
STARTCHAR char9126
ENCODING 9126
SWIDTH 560 0
DWIDTH 7 0
BBX 7 12 0 -2
BITMAP
10
10
10
10
10
10
10
10
10
10
10
F0
ENDCHAR
STARTCHAR char9127
ENCODING 9127
SWIDTH 560 0
DWIDTH 7 0
BBX 7 12 0 -2
BITMAP
06
08
10
10
10
10
10
10
10
10
10
10
ENDCHAR
STARTCHAR char9128
ENCODING 9128
SWIDTH 560 0
DWIDTH 7 0
BBX 7 12 0 -2
BITMAP
10
10
10
10
10
20
C0
20
10
10
10
10
ENDCHAR
STARTCHAR char9129
ENCODING 9129
SWIDTH 560 0
DWIDTH 7 0
BBX 7 12 0 -2
BITMAP
10
10
10
10
10
10
10
10
10
10
08
06
ENDCHAR
STARTCHAR char9130
ENCODING 9130
SWIDTH 560 0
DWIDTH 7 0
BBX 7 12 0 -2
BITMAP
10
10
10
10
10
10
10
10
10
10
10
10
ENDCHAR
STARTCHAR char9131
ENCODING 9131
SWIDTH 560 0
DWIDTH 7 0
BBX 7 12 0 -2
BITMAP
C0
20
10
10
10
10
10
10
10
10
10
10
ENDCHAR
STARTCHAR char9132
ENCODING 9132
SWIDTH 560 0
DWIDTH 7 0
BBX 7 12 0 -2
BITMAP
10
10
10
10
08
06
08
10
10
10
10
10
ENDCHAR
STARTCHAR char9133
ENCODING 9133
SWIDTH 560 0
DWIDTH 7 0
BBX 7 12 0 -2
BITMAP
10
10
10
10
10
10
10
10
10
10
20
C0
ENDCHAR
STARTCHAR char9134
ENCODING 9134
SWIDTH 560 0
DWIDTH 7 0
BBX 7 12 0 -2
BITMAP
10
10
10
10
10
10
10
10
10
10
10
10
ENDCHAR
STARTCHAR char9143
ENCODING 9143
SWIDTH 560 0
DWIDTH 7 0
BBX 7 12 0 -2
BITMAP
10
10
10
10
D0
50
30
30
10
10
00
00
ENDCHAR
STARTCHAR char9193
ENCODING 9193
SWIDTH 560 0
DWIDTH 7 0
BBX 7 12 0 -2
BITMAP
00
00
00
88
CC
EE
EE
CC
88
00
00
00
ENDCHAR
STARTCHAR char9194
ENCODING 9194
SWIDTH 560 0
DWIDTH 7 0
BBX 7 12 0 -2
BITMAP
00
00
00
22
66
EE
EE
66
22
00
00
00
ENDCHAR
STARTCHAR char9195
ENCODING 9195
SWIDTH 560 0
DWIDTH 7 0
BBX 7 12 0 -2
BITMAP
00
00
30
78
FC
00
30
78
FC
00
00
00
ENDCHAR
STARTCHAR char9196
ENCODING 9196
SWIDTH 560 0
DWIDTH 7 0
BBX 7 12 0 -2
BITMAP
00
00
00
FC
78
30
00
FC
78
30
00
00
ENDCHAR
STARTCHAR char9197
ENCODING 9197
SWIDTH 560 0
DWIDTH 7 0
BBX 7 12 0 -2
BITMAP
00
00
00
86
C6
E6
E6
C6
86
00
00
00
ENDCHAR
STARTCHAR char9198
ENCODING 9198
SWIDTH 560 0
DWIDTH 7 0
BBX 7 12 0 -2
BITMAP
00
00
00
C2
C6
CE
CE
C6
C2
00
00
00
ENDCHAR
STARTCHAR char9199
ENCODING 9199
SWIDTH 560 0
DWIDTH 7 0
BBX 7 12 0 -2
BITMAP
00
00
00
8A
CA
EA
EA
CA
8A
00
00
00
ENDCHAR
STARTCHAR char9731
ENCODING 9202
SWIDTH 560 0
DWIDTH 7 0
BBX 7 12 0 -2
BITMAP
00
00
00
7C
92
92
9A
82
82
7C
00
00
ENDCHAR
STARTCHAR char9203
ENCODING 9203
SWIDTH 560 0
DWIDTH 7 0
BBX 7 12 0 -2
BITMAP
00
FE
82
82
7C
38
54
92
BA
FE
00
00
ENDCHAR
STARTCHAR char9204
ENCODING 9204
SWIDTH 560 0
DWIDTH 7 0
BBX 7 12 0 -2
BITMAP
00
00
00
08
18
38
38
18
08
00
00
00
ENDCHAR
STARTCHAR char9205
ENCODING 9205
SWIDTH 560 0
DWIDTH 7 0
BBX 7 12 0 -2
BITMAP
00
00
00
20
30
38
38
30
20
00
00
00
ENDCHAR
STARTCHAR char9208
ENCODING 9208
SWIDTH 560 0
DWIDTH 7 0
BBX 7 12 0 -2
BITMAP
00
00
00
C6
C6
C6
C6
C6
C6
00
00
00
ENDCHAR
STARTCHAR char9209
ENCODING 9209
SWIDTH 560 0
DWIDTH 7 0
BBX 7 12 0 -2
BITMAP
00
00
00
7C
7C
7C
7C
7C
7C
00
00
00
ENDCHAR
STARTCHAR char9210
ENCODING 9210
SWIDTH 560 0
DWIDTH 7 0
BBX 7 12 0 -2
BITMAP
00
00
00
38
7C
7C
7C
7C
38
00
00
00
ENDCHAR
STARTCHAR char9211
ENCODING 9211
SWIDTH 560 0
DWIDTH 7 0
BBX 7 12 0 -2
BITMAP
00
00
10
10
54
92
92
82
44
38
00
00
ENDCHAR
STARTCHAR char9472
ENCODING 9472
SWIDTH 560 0
DWIDTH 7 0
BBX 7 12 0 -2
BITMAP
00
00
00
00
00
FE
00
00
00
00
00
00
ENDCHAR
STARTCHAR char9473
ENCODING 9473
SWIDTH 560 0
DWIDTH 7 0
BBX 7 12 0 -2
BITMAP
00
00
00
00
00
FE
FE
00
00
00
00
00
ENDCHAR
STARTCHAR char9474
ENCODING 9474
SWIDTH 560 0
DWIDTH 7 0
BBX 7 12 0 -2
BITMAP
10
10
10
10
10
10
10
10
10
10
10
10
ENDCHAR
STARTCHAR char9475
ENCODING 9475
SWIDTH 560 0
DWIDTH 7 0
BBX 7 12 0 -2
BITMAP
18
18
18
18
18
18
18
18
18
18
18
18
ENDCHAR
STARTCHAR char9476
ENCODING 9476
SWIDTH 560 0
DWIDTH 7 0
BBX 7 12 0 -2
BITMAP
00
00
00
00
00
DA
00
00
00
00
00
00
ENDCHAR
STARTCHAR char9477
ENCODING 9477
SWIDTH 560 0
DWIDTH 7 0
BBX 7 12 0 -2
BITMAP
00
00
00
00
00
DA
DA
00
00
00
00
00
ENDCHAR
STARTCHAR char9478
ENCODING 9478
SWIDTH 560 0
DWIDTH 7 0
BBX 7 12 0 -2
BITMAP
10
10
00
10
10
00
10
10
00
10
10
00
ENDCHAR
STARTCHAR char9479
ENCODING 9479
SWIDTH 560 0
DWIDTH 7 0
BBX 7 12 0 -2
BITMAP
18
18
00
18
18
00
18
18
00
18
18
00
ENDCHAR
STARTCHAR char9480
ENCODING 9480
SWIDTH 560 0
DWIDTH 7 0
BBX 7 12 0 -2
BITMAP
00
00
00
00
00
AA
00
00
00
00
00
00
ENDCHAR
STARTCHAR char9481
ENCODING 9481
SWIDTH 560 0
DWIDTH 7 0
BBX 7 12 0 -2
BITMAP
00
00
00
00
00
AA
AA
00
00
00
00
00
ENDCHAR
STARTCHAR char9482
ENCODING 9482
SWIDTH 560 0
DWIDTH 7 0
BBX 7 12 0 -2
BITMAP
10
00
10
00
10
00
10
00
10
00
10
00
ENDCHAR
STARTCHAR char9483
ENCODING 9483
SWIDTH 560 0
DWIDTH 7 0
BBX 7 12 0 -2
BITMAP
18
00
18
00
18
00
18
00
18
00
18
00
ENDCHAR
STARTCHAR char9484
ENCODING 9484
SWIDTH 560 0
DWIDTH 7 0
BBX 7 12 0 -2
BITMAP
00
00
00
00
00
1E
10
10
10
10
10
10
ENDCHAR
STARTCHAR char9485
ENCODING 9485
SWIDTH 560 0
DWIDTH 7 0
BBX 7 12 0 -2
BITMAP
00
00
00
00
00
1E
1E
10
10
10
10
10
ENDCHAR
STARTCHAR char9486
ENCODING 9486
SWIDTH 560 0
DWIDTH 7 0
BBX 7 12 0 -2
BITMAP
00
00
00
00
00
1E
18
18
18
18
18
18
ENDCHAR
STARTCHAR char9487
ENCODING 9487
SWIDTH 560 0
DWIDTH 7 0
BBX 7 12 0 -2
BITMAP
00
00
00
00
00
1E
1E
18
18
18
18
18
ENDCHAR
STARTCHAR char9488
ENCODING 9488
SWIDTH 560 0
DWIDTH 7 0
BBX 7 12 0 -2
BITMAP
00
00
00
00
00
F0
10
10
10
10
10
10
ENDCHAR
STARTCHAR char9489
ENCODING 9489
SWIDTH 560 0
DWIDTH 7 0
BBX 7 12 0 -2
BITMAP
00
00
00
00
00
F0
F0
10
10
10
10
10
ENDCHAR
STARTCHAR char9490
ENCODING 9490
SWIDTH 560 0
DWIDTH 7 0
BBX 7 12 0 -2
BITMAP
00
00
00
00
00
F8
18
18
18
18
18
18
ENDCHAR
STARTCHAR char9491
ENCODING 9491
SWIDTH 560 0
DWIDTH 7 0
BBX 7 12 0 -2
BITMAP
00
00
00
00
00
F8
F8
18
18
18
18
18
ENDCHAR
STARTCHAR char9492
ENCODING 9492
SWIDTH 560 0
DWIDTH 7 0
BBX 7 12 0 -2
BITMAP
10
10
10
10
10
1E
00
00
00
00
00
00
ENDCHAR
STARTCHAR char9493
ENCODING 9493
SWIDTH 560 0
DWIDTH 7 0
BBX 7 12 0 -2
BITMAP
10
10
10
10
10
1E
1E
00
00
00
00
00
ENDCHAR
STARTCHAR char9494
ENCODING 9494
SWIDTH 560 0
DWIDTH 7 0
BBX 7 12 0 -2
BITMAP
18
18
18
18
18
1E
00
00
00
00
00
00
ENDCHAR
STARTCHAR char9495
ENCODING 9495
SWIDTH 560 0
DWIDTH 7 0
BBX 7 12 0 -2
BITMAP
18
18
18
18
18
1E
1E
00
00
00
00
00
ENDCHAR
STARTCHAR char9496
ENCODING 9496
SWIDTH 560 0
DWIDTH 7 0
BBX 7 12 0 -2
BITMAP
10
10
10
10
10
F0
00
00
00
00
00
00
ENDCHAR
STARTCHAR char9497
ENCODING 9497
SWIDTH 560 0
DWIDTH 7 0
BBX 7 12 0 -2
BITMAP
10
10
10
10
10
F0
F0
00
00
00
00
00
ENDCHAR
STARTCHAR char9498
ENCODING 9498
SWIDTH 560 0
DWIDTH 7 0
BBX 7 12 0 -2
BITMAP
18
18
18
18
18
F8
00
00
00
00
00
00
ENDCHAR
STARTCHAR char9499
ENCODING 9499
SWIDTH 560 0
DWIDTH 7 0
BBX 7 12 0 -2
BITMAP
18
18
18
18
18
F8
F8
00
00
00
00
00
ENDCHAR
STARTCHAR char9500
ENCODING 9500
SWIDTH 560 0
DWIDTH 7 0
BBX 7 12 0 -2
BITMAP
10
10
10
10
10
1E
10
10
10
10
10
10
ENDCHAR
STARTCHAR char9501
ENCODING 9501
SWIDTH 560 0
DWIDTH 7 0
BBX 7 12 0 -2
BITMAP
10
10
10
10
10
1E
1E
10
10
10
10
10
ENDCHAR
STARTCHAR char9502
ENCODING 9502
SWIDTH 560 0
DWIDTH 7 0
BBX 7 12 0 -2
BITMAP
18
18
18
18
18
1E
10
10
10
10
10
10
ENDCHAR
STARTCHAR char9503
ENCODING 9503
SWIDTH 560 0
DWIDTH 7 0
BBX 7 12 0 -2
BITMAP
10
10
10
10
10
1E
18
18
18
18
18
18
ENDCHAR
STARTCHAR char9504
ENCODING 9504
SWIDTH 560 0
DWIDTH 7 0
BBX 7 12 0 -2
BITMAP
18
18
18
18
18
1E
18
18
18
18
18
18
ENDCHAR
STARTCHAR char9505
ENCODING 9505
SWIDTH 560 0
DWIDTH 7 0
BBX 7 12 0 -2
BITMAP
18
18
18
18
18
1E
1E
10
10
10
10
10
ENDCHAR
STARTCHAR char9506
ENCODING 9506
SWIDTH 560 0
DWIDTH 7 0
BBX 7 12 0 -2
BITMAP
10
10
10
10
10
1E
1E
18
18
18
18
18
ENDCHAR
STARTCHAR char9507
ENCODING 9507
SWIDTH 560 0
DWIDTH 7 0
BBX 7 12 0 -2
BITMAP
18
18
18
18
18
1E
1E
18
18
18
18
18
ENDCHAR
STARTCHAR char9508
ENCODING 9508
SWIDTH 560 0
DWIDTH 7 0
BBX 7 12 0 -2
BITMAP
10
10
10
10
10
F0
10
10
10
10
10
10
ENDCHAR
STARTCHAR char9509
ENCODING 9509
SWIDTH 560 0
DWIDTH 7 0
BBX 7 12 0 -2
BITMAP
10
10
10
10
10
F0
F0
10
10
10
10
10
ENDCHAR
STARTCHAR char9510
ENCODING 9510
SWIDTH 560 0
DWIDTH 7 0
BBX 7 12 0 -2
BITMAP
18
18
18
18
18
F8
10
10
10
10
10
10
ENDCHAR
STARTCHAR char9511
ENCODING 9511
SWIDTH 560 0
DWIDTH 7 0
BBX 7 12 0 -2
BITMAP
10
10
10
10
10
F8
18
18
18
18
18
18
ENDCHAR
STARTCHAR char9512
ENCODING 9512
SWIDTH 560 0
DWIDTH 7 0
BBX 7 12 0 -2
BITMAP
18
18
18
18
18
F8
18
18
18
18
18
18
ENDCHAR
STARTCHAR char9513
ENCODING 9513
SWIDTH 560 0
DWIDTH 7 0
BBX 7 12 0 -2
BITMAP
18
18
18
18
18
F8
F8
10
10
10
10
10
ENDCHAR
STARTCHAR char9514
ENCODING 9514
SWIDTH 560 0
DWIDTH 7 0
BBX 7 12 0 -2
BITMAP
10
10
10
10
10
F8
F8
18
18
18
18
18
ENDCHAR
STARTCHAR char9515
ENCODING 9515
SWIDTH 560 0
DWIDTH 7 0
BBX 7 12 0 -2
BITMAP
18
18
18
18
18
F8
F8
18
18
18
18
18
ENDCHAR
STARTCHAR char9516
ENCODING 9516
SWIDTH 560 0
DWIDTH 7 0
BBX 7 12 0 -2
BITMAP
00
00
00
00
00
FE
10
10
10
10
10
10
ENDCHAR
STARTCHAR char9517
ENCODING 9517
SWIDTH 560 0
DWIDTH 7 0
BBX 7 12 0 -2
BITMAP
00
00
00
00
00
FE
F0
10
10
10
10
10
ENDCHAR
STARTCHAR char9518
ENCODING 9518
SWIDTH 560 0
DWIDTH 7 0
BBX 7 12 0 -2
BITMAP
00
00
00
00
00
FE
1E
10
10
10
10
10
ENDCHAR
STARTCHAR char9519
ENCODING 9519
SWIDTH 560 0
DWIDTH 7 0
BBX 7 12 0 -2
BITMAP
00
00
00
00
00
FE
FE
10
10
10
10
10
ENDCHAR
STARTCHAR char9520
ENCODING 9520
SWIDTH 560 0
DWIDTH 7 0
BBX 7 12 0 -2
BITMAP
00
00
00
00
00
FE
18
18
18
18
18
18
ENDCHAR
STARTCHAR char9521
ENCODING 9521
SWIDTH 560 0
DWIDTH 7 0
BBX 7 12 0 -2
BITMAP
00
00
00
00
00
FE
F8
18
18
18
18
18
ENDCHAR
STARTCHAR char9522
ENCODING 9522
SWIDTH 560 0
DWIDTH 7 0
BBX 7 12 0 -2
BITMAP
00
00
00
00
00
FE
1E
18
18
18
18
18
ENDCHAR
STARTCHAR char9523
ENCODING 9523
SWIDTH 560 0
DWIDTH 7 0
BBX 7 12 0 -2
BITMAP
00
00
00
00
00
FE
FE
18
18
18
18
18
ENDCHAR
STARTCHAR char9524
ENCODING 9524
SWIDTH 560 0
DWIDTH 7 0
BBX 7 12 0 -2
BITMAP
10
10
10
10
10
FE
00
00
00
00
00
00
ENDCHAR
STARTCHAR char9525
ENCODING 9525
SWIDTH 560 0
DWIDTH 7 0
BBX 7 12 0 -2
BITMAP
10
10
10
10
10
FE
F0
00
00
00
00
00
ENDCHAR
STARTCHAR char9526
ENCODING 9526
SWIDTH 560 0
DWIDTH 7 0
BBX 7 12 0 -2
BITMAP
10
10
10
10
10
FE
1E
00
00
00
00
00
ENDCHAR
STARTCHAR char9527
ENCODING 9527
SWIDTH 560 0
DWIDTH 7 0
BBX 7 12 0 -2
BITMAP
10
10
10
10
10
FE
FE
00
00
00
00
00
ENDCHAR
STARTCHAR char9528
ENCODING 9528
SWIDTH 560 0
DWIDTH 7 0
BBX 7 12 0 -2
BITMAP
18
18
18
18
18
FE
00
00
00
00
00
00
ENDCHAR
STARTCHAR char9529
ENCODING 9529
SWIDTH 560 0
DWIDTH 7 0
BBX 7 12 0 -2
BITMAP
18
18
18
18
18
FE
F8
00
00
00
00
00
ENDCHAR
STARTCHAR char9530
ENCODING 9530
SWIDTH 560 0
DWIDTH 7 0
BBX 7 12 0 -2
BITMAP
18
18
18
18
18
FE
1E
00
00
00
00
00
ENDCHAR
STARTCHAR char9531
ENCODING 9531
SWIDTH 560 0
DWIDTH 7 0
BBX 7 12 0 -2
BITMAP
18
18
18
18
18
FE
FE
00
00
00
00
00
ENDCHAR
STARTCHAR char9532
ENCODING 9532
SWIDTH 560 0
DWIDTH 7 0
BBX 7 12 0 -2
BITMAP
10
10
10
10
10
FE
10
10
10
10
10
10
ENDCHAR
STARTCHAR char9533
ENCODING 9533
SWIDTH 560 0
DWIDTH 7 0
BBX 7 12 0 -2
BITMAP
10
10
10
10
10
FE
F0
10
10
10
10
10
ENDCHAR
STARTCHAR char9533
ENCODING 9534
SWIDTH 560 0
DWIDTH 7 0
BBX 7 12 0 -2
BITMAP
10
10
10
10
10
FE
1E
10
10
10
10
10
ENDCHAR
STARTCHAR char9533
ENCODING 9535
SWIDTH 560 0
DWIDTH 7 0
BBX 7 12 0 -2
BITMAP
10
10
10
10
10
FE
FE
10
10
10
10
10
ENDCHAR
STARTCHAR char9533
ENCODING 9536
SWIDTH 560 0
DWIDTH 7 0
BBX 7 12 0 -2
BITMAP
18
18
18
18
18
FE
10
10
10
10
10
10
ENDCHAR
STARTCHAR char9533
ENCODING 9537
SWIDTH 560 0
DWIDTH 7 0
BBX 7 12 0 -2
BITMAP
10
10
10
10
10
FE
18
18
18
18
18
18
ENDCHAR
STARTCHAR char9533
ENCODING 9538
SWIDTH 560 0
DWIDTH 7 0
BBX 7 12 0 -2
BITMAP
18
18
18
18
18
FE
18
18
18
18
18
18
ENDCHAR
STARTCHAR char9533
ENCODING 9539
SWIDTH 560 0
DWIDTH 7 0
BBX 7 12 0 -2
BITMAP
18
18
18
18
18
FE
F0
10
10
10
10
10
ENDCHAR
STARTCHAR char9533
ENCODING 9540
SWIDTH 560 0
DWIDTH 7 0
BBX 7 12 0 -2
BITMAP
18
18
18
18
18
FE
1E
10
10
10
10
10
ENDCHAR
STARTCHAR char9533
ENCODING 9541
SWIDTH 560 0
DWIDTH 7 0
BBX 7 12 0 -2
BITMAP
10
10
10
10
10
FE
F8
18
18
18
18
18
ENDCHAR
STARTCHAR char9533
ENCODING 9542
SWIDTH 560 0
DWIDTH 7 0
BBX 7 12 0 -2
BITMAP
10
10
10
10
10
FE
1E
18
18
18
18
18
ENDCHAR
STARTCHAR char9533
ENCODING 9543
SWIDTH 560 0
DWIDTH 7 0
BBX 7 12 0 -2
BITMAP
18
18
18
18
18
FE
FE
10
10
10
10
10
ENDCHAR
STARTCHAR char9533
ENCODING 9544
SWIDTH 560 0
DWIDTH 7 0
BBX 7 12 0 -2
BITMAP
10
10
10
10
10
FE
FE
18
18
18
18
18
ENDCHAR
STARTCHAR char9533
ENCODING 9545
SWIDTH 560 0
DWIDTH 7 0
BBX 7 12 0 -2
BITMAP
18
18
18
18
18
FE
F8
18
18
18
18
18
ENDCHAR
STARTCHAR char9533
ENCODING 9546
SWIDTH 560 0
DWIDTH 7 0
BBX 7 12 0 -2
BITMAP
18
18
18
18
18
FE
1E
18
18
18
18
18
ENDCHAR
STARTCHAR char9533
ENCODING 9547
SWIDTH 560 0
DWIDTH 7 0
BBX 7 12 0 -2
BITMAP
18
18
18
18
18
FE
FE
18
18
18
18
18
ENDCHAR
STARTCHAR char9548
ENCODING 9548
SWIDTH 560 0
DWIDTH 7 0
BBX 7 12 0 -2
BITMAP
00
00
00
00
00
EE
00
00
00
00
00
00
ENDCHAR
STARTCHAR char9549
ENCODING 9549
SWIDTH 560 0
DWIDTH 7 0
BBX 7 12 0 -2
BITMAP
00
00
00
00
00
EE
EE
00
00
00
00
00
ENDCHAR
STARTCHAR char9550
ENCODING 9550
SWIDTH 560 0
DWIDTH 7 0
BBX 7 12 0 -2
BITMAP
10
10
10
10
10
00
10
10
10
10
10
10
ENDCHAR
STARTCHAR char9551
ENCODING 9551
SWIDTH 560 0
DWIDTH 7 0
BBX 7 12 0 -2
BITMAP
18
18
18
18
18
00
18
18
18
18
18
18
ENDCHAR
STARTCHAR char9552
ENCODING 9552
SWIDTH 560 0
DWIDTH 7 0
BBX 7 12 0 -2
BITMAP
00
00
00
00
FE
00
FE
00
00
00
00
00
ENDCHAR
STARTCHAR char9553
ENCODING 9553
SWIDTH 560 0
DWIDTH 7 0
BBX 7 12 0 -2
BITMAP
28
28
28
28
28
28
28
28
28
28
28
28
ENDCHAR
STARTCHAR char9554
ENCODING 9554
SWIDTH 560 0
DWIDTH 7 0
BBX 7 12 0 -2
BITMAP
00
00
00
00
1E
10
1E
10
10
10
10
10
ENDCHAR
STARTCHAR char9555
ENCODING 9555
SWIDTH 560 0
DWIDTH 7 0
BBX 7 12 0 -2
BITMAP
00
00
00
00
00
3E
28
28
28
28
28
28
ENDCHAR
STARTCHAR char9556
ENCODING 9556
SWIDTH 560 0
DWIDTH 7 0
BBX 7 12 0 -2
BITMAP
00
00
00
00
3E
20
2E
28
28
28
28
28
ENDCHAR
STARTCHAR char9557
ENCODING 9557
SWIDTH 560 0
DWIDTH 7 0
BBX 7 12 0 -2
BITMAP
00
00
00
00
F0
10
F0
10
10
10
10
10
ENDCHAR
STARTCHAR char9558
ENCODING 9558
SWIDTH 560 0
DWIDTH 7 0
BBX 7 12 0 -2
BITMAP
00
00
00
00
00
F8
28
28
28
28
28
28
ENDCHAR
STARTCHAR char9559
ENCODING 9559
SWIDTH 560 0
DWIDTH 7 0
BBX 7 12 0 -2
BITMAP
00
00
00
00
F8
08
E8
28
28
28
28
28
ENDCHAR
STARTCHAR char9560
ENCODING 9560
SWIDTH 560 0
DWIDTH 7 0
BBX 7 12 0 -2
BITMAP
10
10
10
10
1E
10
1E
00
00
00
00
00
ENDCHAR
STARTCHAR char9561
ENCODING 9561
SWIDTH 560 0
DWIDTH 7 0
BBX 7 12 0 -2
BITMAP
28
28
28
28
28
3E
00
00
00
00
00
00
ENDCHAR
STARTCHAR char9562
ENCODING 9562
SWIDTH 560 0
DWIDTH 7 0
BBX 7 12 0 -2
BITMAP
28
28
28
28
2E
20
3E
00
00
00
00
00
ENDCHAR
STARTCHAR char9563
ENCODING 9563
SWIDTH 560 0
DWIDTH 7 0
BBX 7 12 0 -2
BITMAP
10
10
10
10
F0
10
F0
00
00
00
00
00
ENDCHAR
STARTCHAR char9564
ENCODING 9564
SWIDTH 560 0
DWIDTH 7 0
BBX 7 12 0 -2
BITMAP
28
28
28
28
28
F8
00
00
00
00
00
00
ENDCHAR
STARTCHAR char9565
ENCODING 9565
SWIDTH 560 0
DWIDTH 7 0
BBX 7 12 0 -2
BITMAP
28
28
28
28
E8
08
F8
00
00
00
00
00
ENDCHAR
STARTCHAR char9566
ENCODING 9566
SWIDTH 560 0
DWIDTH 7 0
BBX 7 12 0 -2
BITMAP
10
10
10
10
1E
10
1E
10
10
10
10
10
ENDCHAR
STARTCHAR char9567
ENCODING 9567
SWIDTH 560 0
DWIDTH 7 0
BBX 7 12 0 -2
BITMAP
28
28
28
28
28
2E
28
28
28
28
28
28
ENDCHAR
STARTCHAR char9568
ENCODING 9568
SWIDTH 560 0
DWIDTH 7 0
BBX 7 12 0 -2
BITMAP
28
28
28
28
2E
20
2E
28
28
28
28
28
ENDCHAR
STARTCHAR char9569
ENCODING 9569
SWIDTH 560 0
DWIDTH 7 0
BBX 7 12 0 -2
BITMAP
10
10
10
10
F0
10
F0
10
10
10
10
10
ENDCHAR
STARTCHAR char9570
ENCODING 9570
SWIDTH 560 0
DWIDTH 7 0
BBX 7 12 0 -2
BITMAP
28
28
28
28
28
E8
28
28
28
28
28
28
ENDCHAR
STARTCHAR char9571
ENCODING 9571
SWIDTH 560 0
DWIDTH 7 0
BBX 7 12 0 -2
BITMAP
28
28
28
28
E8
08
E8
28
28
28
28
28
ENDCHAR
STARTCHAR char9572
ENCODING 9572
SWIDTH 560 0
DWIDTH 7 0
BBX 7 12 0 -2
BITMAP
00
00
00
00
FE
00
FE
10
10
10
10
10
ENDCHAR
STARTCHAR char9573
ENCODING 9573
SWIDTH 560 0
DWIDTH 7 0
BBX 7 12 0 -2
BITMAP
00
00
00
00
00
FE
28
28
28
28
28
28
ENDCHAR
STARTCHAR char9574
ENCODING 9574
SWIDTH 560 0
DWIDTH 7 0
BBX 7 12 0 -2
BITMAP
00
00
00
00
FE
00
EE
28
28
28
28
28
ENDCHAR
STARTCHAR char9575
ENCODING 9575
SWIDTH 560 0
DWIDTH 7 0
BBX 7 12 0 -2
BITMAP
10
10
10
10
FE
00
FE
00
00
00
00
00
ENDCHAR
STARTCHAR char9576
ENCODING 9576
SWIDTH 560 0
DWIDTH 7 0
BBX 7 12 0 -2
BITMAP
28
28
28
28
28
FE
00
00
00
00
00
00
ENDCHAR
STARTCHAR char9577
ENCODING 9577
SWIDTH 560 0
DWIDTH 7 0
BBX 7 12 0 -2
BITMAP
28
28
28
28
EE
00
FE
00
00
00
00
00
ENDCHAR
STARTCHAR char9578
ENCODING 9578
SWIDTH 560 0
DWIDTH 7 0
BBX 7 12 0 -2
BITMAP
10
10
10
10
FE
00
FE
10
10
10
10
10
ENDCHAR
STARTCHAR char9579
ENCODING 9579
SWIDTH 560 0
DWIDTH 7 0
BBX 7 12 0 -2
BITMAP
28
28
28
28
28
EE
28
28
28
28
28
28
ENDCHAR
STARTCHAR char9580
ENCODING 9580
SWIDTH 560 0
DWIDTH 7 0
BBX 7 12 0 -2
BITMAP
28
28
28
28
EE
00
EE
28
28
28
28
28
ENDCHAR
STARTCHAR char9581
ENCODING 9581
SWIDTH 560 0
DWIDTH 7 0
BBX 7 12 0 -2
BITMAP
00
00
00
00
00
06
08
10
10
10
10
10
ENDCHAR
STARTCHAR char9582
ENCODING 9582
SWIDTH 560 0
DWIDTH 7 0
BBX 7 12 0 -2
BITMAP
00
00
00
00
00
C0
20
10
10
10
10
10
ENDCHAR
STARTCHAR char9583
ENCODING 9583
SWIDTH 560 0
DWIDTH 7 0
BBX 7 12 0 -2
BITMAP
10
10
10
10
20
C0
00
00
00
00
00
00
ENDCHAR
STARTCHAR char9584
ENCODING 9584
SWIDTH 560 0
DWIDTH 7 0
BBX 7 12 0 -2
BITMAP
10
10
10
10
08
06
00
00
00
00
00
00
ENDCHAR
STARTCHAR char9585
ENCODING 9585
SWIDTH 560 0
DWIDTH 7 0
BBX 7 12 0 -2
BITMAP
02
02
04
04
08
10
10
20
40
40
80
80
ENDCHAR
STARTCHAR char9586
ENCODING 9586
SWIDTH 560 0
DWIDTH 7 0
BBX 7 12 0 -2
BITMAP
80
80
40
40
20
10
10
08
04
04
02
02
ENDCHAR
STARTCHAR char9587
ENCODING 9587
SWIDTH 560 0
DWIDTH 7 0
BBX 7 12 0 -2
BITMAP
82
82
44
44
28
10
10
28
44
44
82
82
ENDCHAR
STARTCHAR char9588
ENCODING 9588
SWIDTH 560 0
DWIDTH 7 0
BBX 7 12 0 -2
BITMAP
00
00
00
00
00
F0
00
00
00
00
00
00
ENDCHAR
STARTCHAR char9589
ENCODING 9589
SWIDTH 560 0
DWIDTH 7 0
BBX 7 12 0 -2
BITMAP
10
10
10
10
10
10
00
00
00
00
00
00
ENDCHAR
STARTCHAR char9590
ENCODING 9590
SWIDTH 560 0
DWIDTH 7 0
BBX 7 12 0 -2
BITMAP
00
00
00
00
00
1E
00
00
00
00
00
00
ENDCHAR
STARTCHAR char9591
ENCODING 9591
SWIDTH 560 0
DWIDTH 7 0
BBX 7 12 0 -2
BITMAP
00
00
00
00
00
10
10
10
10
10
10
10
ENDCHAR
STARTCHAR char9592
ENCODING 9592
SWIDTH 560 0
DWIDTH 7 0
BBX 7 12 0 -2
BITMAP
00
00
00
00
00
F0
F0
00
00
00
00
00
ENDCHAR
STARTCHAR char9593
ENCODING 9593
SWIDTH 560 0
DWIDTH 7 0
BBX 7 12 0 -2
BITMAP
18
18
18
18
18
18
18
00
00
00
00
00
ENDCHAR
STARTCHAR char9594
ENCODING 9594
SWIDTH 560 0
DWIDTH 7 0
BBX 7 12 0 -2
BITMAP
00
00
00
00
00
1E
1E
00
00
00
00
00
ENDCHAR
STARTCHAR char9595
ENCODING 9595
SWIDTH 560 0
DWIDTH 7 0
BBX 7 12 0 -2
BITMAP
00
00
00
00
00
18
18
18
18
18
18
18
ENDCHAR
STARTCHAR char9596
ENCODING 9596
SWIDTH 560 0
DWIDTH 7 0
BBX 7 12 0 -2
BITMAP
00
00
00
00
00
FE
1E
00
00
00
00
00
ENDCHAR
STARTCHAR char9597
ENCODING 9597
SWIDTH 560 0
DWIDTH 7 0
BBX 7 12 0 -2
BITMAP
10
10
10
10
10
18
18
18
18
18
18
18
ENDCHAR
STARTCHAR char9598
ENCODING 9598
SWIDTH 560 0
DWIDTH 7 0
BBX 7 12 0 -2
BITMAP
00
00
00
00
00
FE
F0
00
00
00
00
00
ENDCHAR
STARTCHAR char9599
ENCODING 9599
SWIDTH 560 0
DWIDTH 7 0
BBX 7 12 0 -2
BITMAP
18
18
18
18
18
18
10
10
10
10
10
10
ENDCHAR
STARTCHAR char9600
ENCODING 9600
SWIDTH 560 0
DWIDTH 7 0
BBX 7 12 0 -2
BITMAP
FE
FE
FE
FE
FE
FE
FE
00
00
00
00
00
ENDCHAR
STARTCHAR char9601
ENCODING 9601
SWIDTH 560 0
DWIDTH 7 0
BBX 7 12 0 -2
BITMAP
00
00
00
00
00
00
00
00
00
00
FE
FE
ENDCHAR
STARTCHAR char9602
ENCODING 9602
SWIDTH 560 0
DWIDTH 7 0
BBX 7 12 0 -2
BITMAP
00
00
00
00
00
00
00
00
00
FE
FE
FE
ENDCHAR
STARTCHAR char9603
ENCODING 9603
SWIDTH 560 0
DWIDTH 7 0
BBX 7 12 0 -2
BITMAP
00
00
00
00
00
00
00
FE
FE
FE
FE
FE
ENDCHAR
STARTCHAR char9604
ENCODING 9604
SWIDTH 560 0
DWIDTH 7 0
BBX 7 12 0 -2
BITMAP
00
00
00
00
00
00
FE
FE
FE
FE
FE
FE
ENDCHAR
STARTCHAR char9605
ENCODING 9605
SWIDTH 560 0
DWIDTH 7 0
BBX 7 12 0 -2
BITMAP
00
00
00
00
FE
FE
FE
FE
FE
FE
FE
FE
ENDCHAR
STARTCHAR char9606
ENCODING 9606
SWIDTH 560 0
DWIDTH 7 0
BBX 7 12 0 -2
BITMAP
00
00
00
FE
FE
FE
FE
FE
FE
FE
FE
FE
ENDCHAR
STARTCHAR char9607
ENCODING 9607
SWIDTH 560 0
DWIDTH 7 0
BBX 7 12 0 -2
BITMAP
00
FE
FE
FE
FE
FE
FE
FE
FE
FE
FE
FE
ENDCHAR
STARTCHAR char9608
ENCODING 9608
SWIDTH 560 0
DWIDTH 7 0
BBX 7 12 0 -2
BITMAP
FE
FE
FE
FE
FE
FE
FE
FE
FE
FE
FE
FE
ENDCHAR
STARTCHAR char9609
ENCODING 9609
SWIDTH 560 0
DWIDTH 7 0
BBX 7 12 0 -2
BITMAP
FE
FE
FE
FE
FE
FE
FE
FE
FE
FE
FE
FE
ENDCHAR
STARTCHAR char9610
ENCODING 9610
SWIDTH 560 0
DWIDTH 7 0
BBX 7 12 0 -2
BITMAP
7E
7E
7E
7E
7E
7E
7E
7E
7E
7E
7E
7E
ENDCHAR
STARTCHAR char9611
ENCODING 9611
SWIDTH 560 0
DWIDTH 7 0
BBX 7 12 0 -2
BITMAP
7C
7C
7C
7C
7C
7C
7C
7C
7C
7C
7C
7C
ENDCHAR
STARTCHAR char9612
ENCODING 9612
SWIDTH 560 0
DWIDTH 7 0
BBX 7 12 0 -2
BITMAP
3C
3C
3C
3C
3C
3C
3C
3C
3C
3C
3C
3C
ENDCHAR
STARTCHAR char9613
ENCODING 9613
SWIDTH 560 0
DWIDTH 7 0
BBX 7 12 0 -2
BITMAP
38
38
38
38
38
38
38
38
38
38
38
38
ENDCHAR
STARTCHAR char9614
ENCODING 9614
SWIDTH 560 0
DWIDTH 7 0
BBX 7 12 0 -2
BITMAP
18
18
18
18
18
18
18
18
18
18
18
18
ENDCHAR
STARTCHAR char9615
ENCODING 9615
SWIDTH 560 0
DWIDTH 7 0
BBX 7 12 0 -2
BITMAP
10
10
10
10
10
10
10
10
10
10
10
10
ENDCHAR
STARTCHAR char9618
ENCODING 9617
SWIDTH 560 0
DWIDTH 7 0
BBX 7 12 0 -2
BITMAP
92
00
24
00
48
00
92
00
24
00
48
00
ENDCHAR
STARTCHAR char9618
ENCODING 9618
SWIDTH 560 0
DWIDTH 7 0
BBX 7 12 0 -2
BITMAP
54
AA
54
AA
54
AA
54
AA
54
AA
54
AA
ENDCHAR
STARTCHAR char9618
ENCODING 9619
SWIDTH 560 0
DWIDTH 7 0
BBX 7 12 0 -2
BITMAP
54
FE
54
FE
54
FE
54
FE
54
FE
54
FE
ENDCHAR
STARTCHAR char9620
ENCODING 9620
SWIDTH 560 0
DWIDTH 7 0
BBX 7 12 0 -2
BITMAP
FE
00
00
00
00
00
00
00
00
00
00
00
ENDCHAR
STARTCHAR char9621
ENCODING 9621
SWIDTH 560 0
DWIDTH 7 0
BBX 7 12 0 -2
BITMAP
10
10
10
10
10
10
10
10
10
10
10
10
ENDCHAR
STARTCHAR char9632
ENCODING 9632
SWIDTH 560 0
DWIDTH 7 0
BBX 7 12 0 -2
BITMAP
00
00
00
FE
FE
FE
FE
FE
FE
FE
00
00
ENDCHAR
STARTCHAR char9633
ENCODING 9633
SWIDTH 560 0
DWIDTH 7 0
BBX 7 12 0 -2
BITMAP
00
00
00
FE
82
82
82
82
82
FE
00
00
ENDCHAR
STARTCHAR char9634
ENCODING 9634
SWIDTH 560 0
DWIDTH 7 0
BBX 7 12 0 -2
BITMAP
00
00
00
FE
00
00
00
00
00
FE
00
00
ENDCHAR
STARTCHAR char9635
ENCODING 9635
SWIDTH 560 0
DWIDTH 7 0
BBX 7 12 0 -2
BITMAP
00
00
00
FE
82
BA
BA
BA
82
FE
00
00
ENDCHAR
STARTCHAR char9636
ENCODING 9636
SWIDTH 560 0
DWIDTH 7 0
BBX 7 12 0 -2
BITMAP
00
00
00
FE
82
FE
82
FE
82
FE
00
00
ENDCHAR
STARTCHAR char9637
ENCODING 9637
SWIDTH 560 0
DWIDTH 7 0
BBX 7 12 0 -2
BITMAP
00
00
00
FE
AA
AA
AA
AA
AA
FE
00
00
ENDCHAR
STARTCHAR char9638
ENCODING 9638
SWIDTH 560 0
DWIDTH 7 0
BBX 7 12 0 -2
BITMAP
00
00
00
FE
AA
FE
AA
FE
AA
FE
00
00
ENDCHAR
STARTCHAR char9639
ENCODING 9639
SWIDTH 560 0
DWIDTH 7 0
BBX 7 12 0 -2
BITMAP
00
00
00
FE
CA
A6
92
CA
A6
FE
00
00
ENDCHAR
STARTCHAR char9640
ENCODING 9640
SWIDTH 560 0
DWIDTH 7 0
BBX 7 12 0 -2
BITMAP
00
00
00
FE
A6
CA
92
A6
CA
FE
00
00
ENDCHAR
STARTCHAR char9641
ENCODING 9641
SWIDTH 560 0
DWIDTH 7 0
BBX 7 12 0 -2
BITMAP
00
00
00
FE
AA
D6
AA
D6
AA
FE
00
00
ENDCHAR
STARTCHAR char9642
ENCODING 9642
SWIDTH 560 0
DWIDTH 7 0
BBX 7 12 0 -2
BITMAP
00
00
00
38
38
38
38
38
38
38
00
00
ENDCHAR
STARTCHAR char9643
ENCODING 9643
SWIDTH 560 0
DWIDTH 7 0
BBX 7 12 0 -2
BITMAP
00
00
00
38
38
38
38
38
38
00
00
00
ENDCHAR
STARTCHAR char9644
ENCODING 9644
SWIDTH 560 0
DWIDTH 7 0
BBX 7 12 0 -2
BITMAP
00
00
00
FE
FE
FE
FE
FE
FE
00
00
00
ENDCHAR
STARTCHAR char9645
ENCODING 9645
SWIDTH 560 0
DWIDTH 7 0
BBX 7 12 0 -2
BITMAP
00
00
00
FE
00
00
00
00
FE
00
00
00
ENDCHAR
STARTCHAR char9646
ENCODING 9646
SWIDTH 560 0
DWIDTH 7 0
BBX 7 12 0 -2
BITMAP
00
7C
7C
7C
7C
7C
7C
7C
7C
7C
7C
00
ENDCHAR
STARTCHAR char9647
ENCODING 9647
SWIDTH 560 0
DWIDTH 7 0
BBX 7 12 0 -2
BITMAP
00
7C
44
44
44
44
44
44
44
44
7C
00
ENDCHAR
STARTCHAR char9652
ENCODING 9650
SWIDTH 560 0
DWIDTH 7 0
BBX 7 12 0 -2
BITMAP
00
00
10
38
38
7C
7C
C6
82
00
00
00
ENDCHAR
STARTCHAR char9652
ENCODING 9651
SWIDTH 560 0
DWIDTH 7 0
BBX 7 12 0 -2
BITMAP
00
00
10
28
28
44
7C
C6
82
00
00
00
ENDCHAR
STARTCHAR char9652
ENCODING 9652
SWIDTH 560 0
DWIDTH 7 0
BBX 7 12 0 -2
BITMAP
00
00
10
38
38
7C
7C
C6
82
00
00
00
ENDCHAR
STARTCHAR char9656
ENCODING 9654
SWIDTH 560 0
DWIDTH 7 0
BBX 7 12 0 -2
BITMAP
00
00
C0
70
3C
3E
3C
70
C0
00
00
00
ENDCHAR
STARTCHAR char9656
ENCODING 9655
SWIDTH 560 0
DWIDTH 7 0
BBX 7 12 0 -2
BITMAP
00
00
C0
70
2C
22
2C
70
C0
00
00
00
ENDCHAR
STARTCHAR char9656
ENCODING 9656
SWIDTH 560 0
DWIDTH 7 0
BBX 7 12 0 -2
BITMAP
00
00
C0
70
3C
3E
3C
70
C0
00
00
00
ENDCHAR
STARTCHAR char9662
ENCODING 9660
SWIDTH 560 0
DWIDTH 7 0
BBX 7 12 0 -2
BITMAP
00
00
82
C6
7C
7C
38
38
10
00
00
00
ENDCHAR
STARTCHAR char9662
ENCODING 9661
SWIDTH 560 0
DWIDTH 7 0
BBX 7 12 0 -2
BITMAP
00
00
82
C6
7C
44
28
28
10
00
00
00
ENDCHAR
STARTCHAR char9662
ENCODING 9662
SWIDTH 560 0
DWIDTH 7 0
BBX 7 12 0 -2
BITMAP
00
00
82
C6
7C
7C
38
38
10
00
00
00
ENDCHAR
STARTCHAR char9666
ENCODING 9664
SWIDTH 560 0
DWIDTH 7 0
BBX 7 12 0 -2
BITMAP
00
00
06
1C
78
F8
78
1C
06
00
00
00
ENDCHAR
STARTCHAR char9666
ENCODING 9665
SWIDTH 560 0
DWIDTH 7 0
BBX 7 12 0 -2
BITMAP
00
00
06
1C
68
88
68
1C
06
00
00
00
ENDCHAR
STARTCHAR char9666
ENCODING 9666
SWIDTH 560 0
DWIDTH 7 0
BBX 7 12 0 -2
BITMAP
00
00
06
1C
78
F8
78
1C
06
00
00
00
ENDCHAR
STARTCHAR char9670
ENCODING 9670
SWIDTH 560 0
DWIDTH 7 0
BBX 7 12 0 -2
BITMAP
00
00
10
38
7C
FE
7C
38
10
00
00
00
ENDCHAR
STARTCHAR char9671
ENCODING 9671
SWIDTH 560 0
DWIDTH 7 0
BBX 7 12 0 -2
BITMAP
00
00
10
28
44
82
44
28
10
00
00
00
ENDCHAR
STARTCHAR char9672
ENCODING 9672
SWIDTH 560 0
DWIDTH 7 0
BBX 7 12 0 -2
BITMAP
00
00
10
28
54
BA
54
28
10
00
00
00
ENDCHAR
STARTCHAR char9755
ENCODING 9724
SWIDTH 560 0
DWIDTH 7 0
BBX 7 12 0 -2
BITMAP
00
00
00
EE
EE
EE
E0
EE
EE
EE
00
00
ENDCHAR
STARTCHAR char9734
ENCODING 9734
SWIDTH 560 0
DWIDTH 7 0
BBX 7 12 0 -2
BITMAP
00
00
00
00
00
00
00
00
00
00
00
00
ENDCHAR
STARTCHAR char9735
ENCODING 9735
SWIDTH 560 0
DWIDTH 7 0
BBX 7 12 0 -2
BITMAP
00
00
00
00
00
00
00
00
00
00
00
00
ENDCHAR
STARTCHAR char9736
ENCODING 9736
SWIDTH 560 0
DWIDTH 7 0
BBX 7 12 0 -2
BITMAP
00
00
00
00
00
00
00
00
00
00
00
00
ENDCHAR
STARTCHAR char9748
ENCODING 9744
SWIDTH 560 0
DWIDTH 7 0
BBX 7 12 0 -2
BITMAP
00
00
00
FE
82
82
82
82
82
FE
00
00
ENDCHAR
STARTCHAR char9749
ENCODING 9745
SWIDTH 560 0
DWIDTH 7 0
BBX 7 12 0 -2
BITMAP
00
00
00
FE
86
8A
D2
A2
A2
FE
00
00
ENDCHAR
STARTCHAR char9754
ENCODING 9746
SWIDTH 560 0
DWIDTH 7 0
BBX 7 12 0 -2
BITMAP
00
00
00
FE
C6
AA
92
AA
C6
FE
00
00
ENDCHAR
STARTCHAR char9756
ENCODING 9748
SWIDTH 560 0
DWIDTH 7 0
BBX 7 12 0 -2
BITMAP
00
00
00
00
00
00
00
00
00
00
00
00
ENDCHAR
STARTCHAR char9757
ENCODING 9749
SWIDTH 560 0
DWIDTH 7 0
BBX 7 12 0 -2
BITMAP
00
10
20
50
20
8C
FA
FA
FC
70
00
00
ENDCHAR
STARTCHAR char9750
ENCODING 9750
SWIDTH 560 0
DWIDTH 7 0
BBX 7 12 0 -2
BITMAP
00
00
00
38
38
38
38
38
38
00
00
00
ENDCHAR
STARTCHAR char9752
ENCODING 9752
SWIDTH 560 0
DWIDTH 7 0
BBX 7 12 0 -2
BITMAP
00
00
10
38
38
D6
EE
D6
10
20
00
00
ENDCHAR
STARTCHAR char9737
ENCODING 9753
SWIDTH 560 0
DWIDTH 7 0
BBX 7 12 0 -2
BITMAP
40
04
24
8C
3C
74
6C
5C
78
C2
00
00
ENDCHAR
STARTCHAR char9766
ENCODING 9766
SWIDTH 560 0
DWIDTH 7 0
BBX 7 12 0 -2
BITMAP
00
00
00
00
00
00
00
00
00
00
00
00
ENDCHAR
STARTCHAR char9775
ENCODING 9775
SWIDTH 560 0
DWIDTH 7 0
BBX 7 12 0 -2
BITMAP
00
00
00
38
74
DA
F2
EA
64
38
00
00
ENDCHAR
STARTCHAR char9776
ENCODING 9776
SWIDTH 560 0
DWIDTH 7 0
BBX 7 12 0 -2
BITMAP
00
00
7C
7C
00
7C
7C
00
7C
7C
00
00
ENDCHAR
STARTCHAR char9777
ENCODING 9777
SWIDTH 560 0
DWIDTH 7 0
BBX 7 12 0 -2
BITMAP
00
00
6C
6C
00
7C
7C
00
7C
7C
00
00
ENDCHAR
STARTCHAR char9778
ENCODING 9778
SWIDTH 560 0
DWIDTH 7 0
BBX 7 12 0 -2
BITMAP
00
00
7C
7C
00
6C
6C
00
7C
7C
00
00
ENDCHAR
STARTCHAR char9779
ENCODING 9779
SWIDTH 560 0
DWIDTH 7 0
BBX 7 12 0 -2
BITMAP
00
00
6C
6C
00
6C
6C
00
7C
7C
00
00
ENDCHAR
STARTCHAR char9780
ENCODING 9780
SWIDTH 560 0
DWIDTH 7 0
BBX 7 12 0 -2
BITMAP
00
00
7C
7C
00
7C
7C
00
6C
6C
00
00
ENDCHAR
STARTCHAR char9781
ENCODING 9781
SWIDTH 560 0
DWIDTH 7 0
BBX 7 12 0 -2
BITMAP
00
00
6C
6C
00
7C
7C
00
6C
6C
00
00
ENDCHAR
STARTCHAR char9782
ENCODING 9782
SWIDTH 560 0
DWIDTH 7 0
BBX 7 12 0 -2
BITMAP
00
00
7C
7C
00
6C
6C
00
6C
6C
00
00
ENDCHAR
STARTCHAR char9783
ENCODING 9783
SWIDTH 560 0
DWIDTH 7 0
BBX 7 12 0 -2
BITMAP
00
00
6C
6C
00
6C
6C
00
6C
6C
00
00
ENDCHAR
STARTCHAR char9784
ENCODING 9784
SWIDTH 560 0
DWIDTH 7 0
BBX 7 12 0 -2
BITMAP
00
00
00
92
7C
7C
EE
7C
7C
92
00
00
ENDCHAR
STARTCHAR char9785
ENCODING 9785
SWIDTH 560 0
DWIDTH 7 0
BBX 7 12 0 -2
BITMAP
00
00
7C
82
AA
82
BA
AA
82
7C
00
00
ENDCHAR
STARTCHAR char9785
ENCODING 9786
SWIDTH 560 0
DWIDTH 7 0
BBX 7 12 0 -2
BITMAP
00
00
7C
82
AA
82
AA
BA
82
7C
00
00
ENDCHAR
STARTCHAR char9785
ENCODING 9787
SWIDTH 560 0
DWIDTH 7 0
BBX 7 12 0 -2
BITMAP
00
00
7C
FE
D6
FE
BA
C6
FE
7C
00
00
ENDCHAR
STARTCHAR char9788
ENCODING 9788
SWIDTH 560 0
DWIDTH 7 0
BBX 7 12 0 -2
BITMAP
00
00
00
92
54
38
EE
38
54
92
00
00
ENDCHAR
STARTCHAR char9792
ENCODING 9792
SWIDTH 560 0
DWIDTH 7 0
BBX 7 12 0 -2
BITMAP
00
00
38
44
44
44
38
10
7C
10
10
00
ENDCHAR
STARTCHAR char9798
ENCODING 9798
SWIDTH 560 0
DWIDTH 7 0
BBX 7 12 0 -2
BITMAP
00
10
54
D6
54
54
38
10
7C
10
10
00
ENDCHAR
STARTCHAR char9824
ENCODING 9824
SWIDTH 560 0
DWIDTH 7 0
BBX 7 12 0 -2
BITMAP
00
00
10
10
38
7C
7C
38
10
38
00
00
ENDCHAR
STARTCHAR char9825
ENCODING 9825
SWIDTH 560 0
DWIDTH 7 0
BBX 7 12 0 -2
BITMAP
00
00
00
28
54
44
44
28
10
00
00
00
ENDCHAR
STARTCHAR char9826
ENCODING 9826
SWIDTH 560 0
DWIDTH 7 0
BBX 7 12 0 -2
BITMAP
00
00
00
10
28
44
44
28
10
00
00
00
ENDCHAR
STARTCHAR char9827
ENCODING 9827
SWIDTH 560 0
DWIDTH 7 0
BBX 7 12 0 -2
BITMAP
00
00
00
38
38
10
7C
7C
10
38
00
00
ENDCHAR
STARTCHAR char9828
ENCODING 9828
SWIDTH 560 0
DWIDTH 7 0
BBX 7 12 0 -2
BITMAP
00
00
10
10
28
44
44
28
10
38
00
00
ENDCHAR
STARTCHAR char9829
ENCODING 9829
SWIDTH 560 0
DWIDTH 7 0
BBX 7 12 0 -2
BITMAP
00
00
00
28
7C
7C
7C
38
10
00
00
00
ENDCHAR
STARTCHAR char9830
ENCODING 9830
SWIDTH 560 0
DWIDTH 7 0
BBX 7 12 0 -2
BITMAP
00
10
10
38
38
7C
38
38
10
10
00
00
ENDCHAR
STARTCHAR char9831
ENCODING 9831
SWIDTH 560 0
DWIDTH 7 0
BBX 7 12 0 -2
BITMAP
00
00
38
28
10
7C
44
7C
10
38
00
00
ENDCHAR
STARTCHAR char9833
ENCODING 9833
SWIDTH 560 0
DWIDTH 7 0
BBX 7 12 0 -2
BITMAP
00
00
10
10
10
10
10
10
70
70
00
00
ENDCHAR
STARTCHAR char9834
ENCODING 9834
SWIDTH 560 0
DWIDTH 7 0
BBX 7 12 0 -2
BITMAP
00
00
10
18
14
14
18
10
70
70
00
00
ENDCHAR
STARTCHAR char9835
ENCODING 9835
SWIDTH 560 0
DWIDTH 7 0
BBX 7 12 0 -2
BITMAP
00
00
3E
22
22
22
22
22
EE
EE
00
00
ENDCHAR
STARTCHAR char9836
ENCODING 9836
SWIDTH 560 0
DWIDTH 7 0
BBX 7 12 0 -2
BITMAP
00
00
3E
3E
22
3E
22
22
EE
EE
00
00
ENDCHAR
STARTCHAR char9837
ENCODING 9837
SWIDTH 560 0
DWIDTH 7 0
BBX 7 12 0 -2
BITMAP
00
00
20
20
20
20
38
24
28
30
00
00
ENDCHAR
STARTCHAR char9838
ENCODING 9838
SWIDTH 560 0
DWIDTH 7 0
BBX 7 12 0 -2
BITMAP
00
00
3E
3E
22
22
22
22
EE
EE
00
00
ENDCHAR
STARTCHAR char9839
ENCODING 9839
SWIDTH 560 0
DWIDTH 7 0
BBX 7 12 0 -2
BITMAP
00
00
44
66
76
74
64
44
1C
1C
00
00
ENDCHAR
STARTCHAR char9864
ENCODING 9864
SWIDTH 560 0
DWIDTH 7 0
BBX 7 12 0 -2
BITMAP
00
00
00
3C
6E
F8
F0
F8
7E
3C
00
00
ENDCHAR
STARTCHAR char9875
ENCODING 9875
SWIDTH 560 0
DWIDTH 7 0
BBX 7 12 0 -2
BITMAP
00
00
38
28
10
38
92
D6
92
7C
00
00
ENDCHAR
STARTCHAR char9876
ENCODING 9876
SWIDTH 560 0
DWIDTH 7 0
BBX 7 12 0 -2
BITMAP
00
00
00
82
44
28
10
EE
6C
AA
00
00
ENDCHAR
STARTCHAR char9879
ENCODING 9879
SWIDTH 560 0
DWIDTH 7 0
BBX 7 12 0 -2
BITMAP
00
00
7C
BA
92
7C
54
AA
82
44
00
00
ENDCHAR
STARTCHAR char9984
ENCODING 9984
SWIDTH 560 0
DWIDTH 7 0
BBX 7 12 0 -2
BITMAP
00
00
44
6C
38
10
38
6C
AA
C6
00
00
ENDCHAR
STARTCHAR char9992
ENCODING 9992
SWIDTH 560 0
DWIDTH 7 0
BBX 7 12 0 -2
BITMAP
00
00
00
20
90
58
7E
58
90
20
00
00
ENDCHAR
STARTCHAR char9748
ENCODING 9993
SWIDTH 560 0
DWIDTH 7 0
BBX 7 12 0 -2
BITMAP
00
00
00
FE
BA
D6
EE
FE
FE
FE
00
00
ENDCHAR
STARTCHAR char10003
ENCODING 10003
SWIDTH 560 0
DWIDTH 7 0
BBX 7 12 0 -2
BITMAP
00
00
00
02
04
88
58
70
20
00
00
00
ENDCHAR
STARTCHAR char10004
ENCODING 10004
SWIDTH 560 0
DWIDTH 7 0
BBX 7 12 0 -2
BITMAP
00
00
02
04
0C
D8
F8
70
20
00
00
00
ENDCHAR
STARTCHAR char10005
ENCODING 10005
SWIDTH 560 0
DWIDTH 7 0
BBX 7 12 0 -2
BITMAP
00
00
00
00
44
28
10
28
44
00
00
00
ENDCHAR
STARTCHAR char10006
ENCODING 10006
SWIDTH 560 0
DWIDTH 7 0
BBX 7 12 0 -2
BITMAP
00
00
00
44
6C
38
38
6C
44
00
00
00
ENDCHAR
STARTCHAR char10007
ENCODING 10007
SWIDTH 560 0
DWIDTH 7 0
BBX 7 12 0 -2
BITMAP
00
00
40
46
28
10
28
44
02
80
00
00
ENDCHAR
STARTCHAR char10008
ENCODING 10008
SWIDTH 560 0
DWIDTH 7 0
BBX 7 12 0 -2
BITMAP
00
00
80
46
6E
38
38
6C
46
40
00
00
ENDCHAR
STARTCHAR char10070
ENCODING 10070
SWIDTH 560 0
DWIDTH 7 0
BBX 7 12 0 -2
BITMAP
00
00
00
10
38
54
EE
54
38
10
00
00
ENDCHAR
STARTCHAR char10092
ENCODING 10092
SWIDTH 560 0
DWIDTH 7 0
BBX 7 12 0 -2
BITMAP
00
00
00
00
08
10
20
10
08
00
00
00
ENDCHAR
STARTCHAR char10093
ENCODING 10093
SWIDTH 560 0
DWIDTH 7 0
BBX 7 12 0 -2
BITMAP
00
00
00
00
20
10
08
10
20
00
00
00
ENDCHAR
STARTCHAR char10144
ENCODING 10144
SWIDTH 560 0
DWIDTH 7 0
BBX 7 12 0 -2
BITMAP
00
00
00
08
AC
AE
AE
AC
08
00
00
00
ENDCHAR
STARTCHAR char10205
ENCODING 10205
SWIDTH 560 0
DWIDTH 7 0
BBX 7 12 0 -2
BITMAP
E0
E0
E0
FC
FE
FE
FE
FE
FC
E0
E0
E0
ENDCHAR
STARTCHAR char10205
ENCODING 10206
SWIDTH 560 0
DWIDTH 7 0
BBX 7 12 0 -2
BITMAP
0E
0E
0E
7E
FE
FE
FE
FE
7E
0E
0E
0E
ENDCHAR
STARTCHAR char10213
ENCODING 10212
SWIDTH 560 0
DWIDTH 7 0
BBX 7 12 0 -2
BITMAP
0E
0E
FE
FE
FE
0E
0E
FE
FE
FE
0E
0E
ENDCHAR
STARTCHAR char10213
ENCODING 10213
SWIDTH 560 0
DWIDTH 7 0
BBX 7 12 0 -2
BITMAP
E0
E0
FE
FE
FE
E0
E0
FE
FE
FE
E0
E0
ENDCHAR
STARTCHAR char10216
ENCODING 10216
SWIDTH 560 0
DWIDTH 7 0
BBX 7 12 0 -2
BITMAP
00
08
08
10
10
20
20
10
10
08
08
00
ENDCHAR
STARTCHAR char10217
ENCODING 10217
SWIDTH 560 0
DWIDTH 7 0
BBX 7 12 0 -2
BITMAP
00
20
20
10
10
08
08
10
10
20
20
00
ENDCHAR
STARTCHAR char10241
ENCODING 10241
SWIDTH 560 0
DWIDTH 7 0
BBX 7 12 0 -2
BITMAP
00
60
60
00
00
00
00
00
00
00
00
00
ENDCHAR
STARTCHAR char10242
ENCODING 10242
SWIDTH 560 0
DWIDTH 7 0
BBX 7 12 0 -2
BITMAP
00
00
00
00
60
60
00
00
00
00
00
00
ENDCHAR
STARTCHAR char10243
ENCODING 10243
SWIDTH 560 0
DWIDTH 7 0
BBX 7 12 0 -2
BITMAP
00
60
60
00
60
60
00
00
00
00
00
00
ENDCHAR
STARTCHAR char10244
ENCODING 10244
SWIDTH 560 0
DWIDTH 7 0
BBX 7 12 0 -2
BITMAP
00
00
00
00
00
00
00
60
60
00
00
00
ENDCHAR
STARTCHAR char10245
ENCODING 10245
SWIDTH 560 0
DWIDTH 7 0
BBX 7 12 0 -2
BITMAP
00
60
60
00
00
00
00
60
60
00
00
00
ENDCHAR
STARTCHAR char10246
ENCODING 10246
SWIDTH 560 0
DWIDTH 7 0
BBX 7 12 0 -2
BITMAP
00
00
00
00
60
60
00
60
60
00
00
00
ENDCHAR
STARTCHAR char10247
ENCODING 10247
SWIDTH 560 0
DWIDTH 7 0
BBX 7 12 0 -2
BITMAP
00
60
60
00
60
60
00
60
60
00
00
00
ENDCHAR
STARTCHAR char10248
ENCODING 10248
SWIDTH 560 0
DWIDTH 7 0
BBX 7 12 0 -2
BITMAP
00
0C
0C
00
00
00
00
00
00
00
00
00
ENDCHAR
STARTCHAR char10249
ENCODING 10249
SWIDTH 560 0
DWIDTH 7 0
BBX 7 12 0 -2
BITMAP
00
6C
6C
00
00
00
00
00
00
00
00
00
ENDCHAR
STARTCHAR char10250
ENCODING 10250
SWIDTH 560 0
DWIDTH 7 0
BBX 7 12 0 -2
BITMAP
00
0C
0C
00
60
60
00
00
00
00
00
00
ENDCHAR
STARTCHAR char10251
ENCODING 10251
SWIDTH 560 0
DWIDTH 7 0
BBX 7 12 0 -2
BITMAP
00
6C
6C
00
60
60
00
00
00
00
00
00
ENDCHAR
STARTCHAR char10252
ENCODING 10252
SWIDTH 560 0
DWIDTH 7 0
BBX 7 12 0 -2
BITMAP
00
0C
0C
00
00
00
00
60
60
00
00
00
ENDCHAR
STARTCHAR char10253
ENCODING 10253
SWIDTH 560 0
DWIDTH 7 0
BBX 7 12 0 -2
BITMAP
00
6C
6C
00
00
00
00
60
60
00
00
00
ENDCHAR
STARTCHAR char10254
ENCODING 10254
SWIDTH 560 0
DWIDTH 7 0
BBX 7 12 0 -2
BITMAP
00
0C
0C
00
60
60
00
60
60
00
00
00
ENDCHAR
STARTCHAR char10255
ENCODING 10255
SWIDTH 560 0
DWIDTH 7 0
BBX 7 12 0 -2
BITMAP
00
6C
6C
00
60
60
00
60
60
00
00
00
ENDCHAR
STARTCHAR char10256
ENCODING 10256
SWIDTH 560 0
DWIDTH 7 0
BBX 7 12 0 -2
BITMAP
00
00
00
00
0C
0C
00
00
00
00
00
00
ENDCHAR
STARTCHAR char10257
ENCODING 10257
SWIDTH 560 0
DWIDTH 7 0
BBX 7 12 0 -2
BITMAP
00
60
60
00
0C
0C
00
00
00
00
00
00
ENDCHAR
STARTCHAR char10258
ENCODING 10258
SWIDTH 560 0
DWIDTH 7 0
BBX 7 12 0 -2
BITMAP
00
00
00
00
6C
6C
00
00
00
00
00
00
ENDCHAR
STARTCHAR char10259
ENCODING 10259
SWIDTH 560 0
DWIDTH 7 0
BBX 7 12 0 -2
BITMAP
00
60
60
00
6C
6C
00
00
00
00
00
00
ENDCHAR
STARTCHAR char10260
ENCODING 10260
SWIDTH 560 0
DWIDTH 7 0
BBX 7 12 0 -2
BITMAP
00
00
00
00
0C
0C
00
60
60
00
00
00
ENDCHAR
STARTCHAR char10261
ENCODING 10261
SWIDTH 560 0
DWIDTH 7 0
BBX 7 12 0 -2
BITMAP
00
60
60
00
0C
0C
00
60
60
00
00
00
ENDCHAR
STARTCHAR char10262
ENCODING 10262
SWIDTH 560 0
DWIDTH 7 0
BBX 7 12 0 -2
BITMAP
00
00
00
00
6C
6C
00
60
60
00
00
00
ENDCHAR
STARTCHAR char10263
ENCODING 10263
SWIDTH 560 0
DWIDTH 7 0
BBX 7 12 0 -2
BITMAP
00
60
60
00
6C
6C
00
60
60
00
00
00
ENDCHAR
STARTCHAR char10264
ENCODING 10264
SWIDTH 560 0
DWIDTH 7 0
BBX 7 12 0 -2
BITMAP
00
0C
0C
00
0C
0C
00
00
00
00
00
00
ENDCHAR
STARTCHAR char10265
ENCODING 10265
SWIDTH 560 0
DWIDTH 7 0
BBX 7 12 0 -2
BITMAP
00
6C
6C
00
0C
0C
00
00
00
00
00
00
ENDCHAR
STARTCHAR char10266
ENCODING 10266
SWIDTH 560 0
DWIDTH 7 0
BBX 7 12 0 -2
BITMAP
00
0C
0C
00
6C
6C
00
00
00
00
00
00
ENDCHAR
STARTCHAR char10267
ENCODING 10267
SWIDTH 560 0
DWIDTH 7 0
BBX 7 12 0 -2
BITMAP
00
6C
6C
00
6C
6C
00
00
00
00
00
00
ENDCHAR
STARTCHAR char10268
ENCODING 10268
SWIDTH 560 0
DWIDTH 7 0
BBX 7 12 0 -2
BITMAP
00
0C
0C
00
0C
0C
00
60
60
00
00
00
ENDCHAR
STARTCHAR char10269
ENCODING 10269
SWIDTH 560 0
DWIDTH 7 0
BBX 7 12 0 -2
BITMAP
00
6C
6C
00
0C
0C
00
60
60
00
00
00
ENDCHAR
STARTCHAR char10270
ENCODING 10270
SWIDTH 560 0
DWIDTH 7 0
BBX 7 12 0 -2
BITMAP
00
0C
0C
00
6C
6C
00
60
60
00
00
00
ENDCHAR
STARTCHAR char10271
ENCODING 10271
SWIDTH 560 0
DWIDTH 7 0
BBX 7 12 0 -2
BITMAP
00
6C
6C
00
6C
6C
00
60
60
00
00
00
ENDCHAR
STARTCHAR char10272
ENCODING 10272
SWIDTH 560 0
DWIDTH 7 0
BBX 7 12 0 -2
BITMAP
00
00
00
00
00
00
00
0C
0C
00
00
00
ENDCHAR
STARTCHAR char10273
ENCODING 10273
SWIDTH 560 0
DWIDTH 7 0
BBX 7 12 0 -2
BITMAP
00
60
60
00
00
00
00
0C
0C
00
00
00
ENDCHAR
STARTCHAR char10274
ENCODING 10274
SWIDTH 560 0
DWIDTH 7 0
BBX 7 12 0 -2
BITMAP
00
00
00
00
60
60
00
0C
0C
00
00
00
ENDCHAR
STARTCHAR char10275
ENCODING 10275
SWIDTH 560 0
DWIDTH 7 0
BBX 7 12 0 -2
BITMAP
00
60
60
00
60
60
00
0C
0C
00
00
00
ENDCHAR
STARTCHAR char10276
ENCODING 10276
SWIDTH 560 0
DWIDTH 7 0
BBX 7 12 0 -2
BITMAP
00
00
00
00
00
00
00
6C
6C
00
00
00
ENDCHAR
STARTCHAR char10277
ENCODING 10277
SWIDTH 560 0
DWIDTH 7 0
BBX 7 12 0 -2
BITMAP
00
60
60
00
00
00
00
6C
6C
00
00
00
ENDCHAR
STARTCHAR char10278
ENCODING 10278
SWIDTH 560 0
DWIDTH 7 0
BBX 7 12 0 -2
BITMAP
00
00
00
00
60
60
00
6C
6C
00
00
00
ENDCHAR
STARTCHAR char10279
ENCODING 10279
SWIDTH 560 0
DWIDTH 7 0
BBX 7 12 0 -2
BITMAP
00
60
60
00
60
60
00
6C
6C
00
00
00
ENDCHAR
STARTCHAR char10280
ENCODING 10280
SWIDTH 560 0
DWIDTH 7 0
BBX 7 12 0 -2
BITMAP
00
0C
0C
00
00
00
00
0C
0C
00
00
00
ENDCHAR
STARTCHAR char10281
ENCODING 10281
SWIDTH 560 0
DWIDTH 7 0
BBX 7 12 0 -2
BITMAP
00
6C
6C
00
00
00
00
0C
0C
00
00
00
ENDCHAR
STARTCHAR char10282
ENCODING 10282
SWIDTH 560 0
DWIDTH 7 0
BBX 7 12 0 -2
BITMAP
00
0C
0C
00
60
60
00
0C
0C
00
00
00
ENDCHAR
STARTCHAR char10283
ENCODING 10283
SWIDTH 560 0
DWIDTH 7 0
BBX 7 12 0 -2
BITMAP
00
6C
6C
00
60
60
00
0C
0C
00
00
00
ENDCHAR
STARTCHAR char10284
ENCODING 10284
SWIDTH 560 0
DWIDTH 7 0
BBX 7 12 0 -2
BITMAP
00
0C
0C
00
00
00
00
6C
6C
00
00
00
ENDCHAR
STARTCHAR char10285
ENCODING 10285
SWIDTH 560 0
DWIDTH 7 0
BBX 7 12 0 -2
BITMAP
00
6C
6C
00
00
00
00
6C
6C
00
00
00
ENDCHAR
STARTCHAR char10286
ENCODING 10286
SWIDTH 560 0
DWIDTH 7 0
BBX 7 12 0 -2
BITMAP
00
0C
0C
00
60
60
00
6C
6C
00
00
00
ENDCHAR
STARTCHAR char10287
ENCODING 10287
SWIDTH 560 0
DWIDTH 7 0
BBX 7 12 0 -2
BITMAP
00
6C
6C
00
60
60
00
6C
6C
00
00
00
ENDCHAR
STARTCHAR char10288
ENCODING 10288
SWIDTH 560 0
DWIDTH 7 0
BBX 7 12 0 -2
BITMAP
00
00
00
00
0C
0C
00
0C
0C
00
00
00
ENDCHAR
STARTCHAR char10289
ENCODING 10289
SWIDTH 560 0
DWIDTH 7 0
BBX 7 12 0 -2
BITMAP
00
60
60
00
0C
0C
00
0C
0C
00
00
00
ENDCHAR
STARTCHAR char10290
ENCODING 10290
SWIDTH 560 0
DWIDTH 7 0
BBX 7 12 0 -2
BITMAP
00
00
00
00
6C
6C
00
0C
0C
00
00
00
ENDCHAR
STARTCHAR char10291
ENCODING 10291
SWIDTH 560 0
DWIDTH 7 0
BBX 7 12 0 -2
BITMAP
00
60
60
00
6C
6C
00
0C
0C
00
00
00
ENDCHAR
STARTCHAR char10292
ENCODING 10292
SWIDTH 560 0
DWIDTH 7 0
BBX 7 12 0 -2
BITMAP
00
00
00
00
0C
0C
00
6C
6C
00
00
00
ENDCHAR
STARTCHAR char10293
ENCODING 10293
SWIDTH 560 0
DWIDTH 7 0
BBX 7 12 0 -2
BITMAP
00
60
60
00
0C
0C
00
6C
6C
00
00
00
ENDCHAR
STARTCHAR char10294
ENCODING 10294
SWIDTH 560 0
DWIDTH 7 0
BBX 7 12 0 -2
BITMAP
00
00
00
00
6C
6C
00
6C
6C
00
00
00
ENDCHAR
STARTCHAR char10295
ENCODING 10295
SWIDTH 560 0
DWIDTH 7 0
BBX 7 12 0 -2
BITMAP
00
60
60
00
6C
6C
00
6C
6C
00
00
00
ENDCHAR
STARTCHAR char10296
ENCODING 10296
SWIDTH 560 0
DWIDTH 7 0
BBX 7 12 0 -2
BITMAP
00
0C
0C
00
0C
0C
00
0C
0C
00
00
00
ENDCHAR
STARTCHAR char10297
ENCODING 10297
SWIDTH 560 0
DWIDTH 7 0
BBX 7 12 0 -2
BITMAP
00
6C
6C
00
0C
0C
00
0C
0C
00
00
00
ENDCHAR
STARTCHAR char10298
ENCODING 10298
SWIDTH 560 0
DWIDTH 7 0
BBX 7 12 0 -2
BITMAP
00
0C
0C
00
6C
6C
00
0C
0C
00
00
00
ENDCHAR
STARTCHAR char10299
ENCODING 10299
SWIDTH 560 0
DWIDTH 7 0
BBX 7 12 0 -2
BITMAP
00
6C
6C
00
6C
6C
00
0C
0C
00
00
00
ENDCHAR
STARTCHAR char10300
ENCODING 10300
SWIDTH 560 0
DWIDTH 7 0
BBX 7 12 0 -2
BITMAP
00
0C
0C
00
0C
0C
00
6C
6C
00
00
00
ENDCHAR
STARTCHAR char10301
ENCODING 10301
SWIDTH 560 0
DWIDTH 7 0
BBX 7 12 0 -2
BITMAP
00
6C
6C
00
0C
0C
00
6C
6C
00
00
00
ENDCHAR
STARTCHAR char10302
ENCODING 10302
SWIDTH 560 0
DWIDTH 7 0
BBX 7 12 0 -2
BITMAP
00
0C
0C
00
6C
6C
00
6C
6C
00
00
00
ENDCHAR
STARTCHAR char10303
ENCODING 10303
SWIDTH 560 0
DWIDTH 7 0
BBX 7 12 0 -2
BITMAP
00
6C
6C
00
6C
6C
00
6C
6C
00
00
00
ENDCHAR
STARTCHAR char10304
ENCODING 10304
SWIDTH 560 0
DWIDTH 7 0
BBX 7 12 0 -2
BITMAP
00
00
00
00
00
00
00
00
00
00
60
60
ENDCHAR
STARTCHAR char10305
ENCODING 10305
SWIDTH 560 0
DWIDTH 7 0
BBX 7 12 0 -2
BITMAP
00
60
60
00
00
00
00
00
00
00
60
60
ENDCHAR
STARTCHAR char10306
ENCODING 10306
SWIDTH 560 0
DWIDTH 7 0
BBX 7 12 0 -2
BITMAP
00
00
00
00
60
60
00
00
00
00
60
60
ENDCHAR
STARTCHAR char10307
ENCODING 10307
SWIDTH 560 0
DWIDTH 7 0
BBX 7 12 0 -2
BITMAP
00
60
60
00
60
60
00
00
00
00
60
60
ENDCHAR
STARTCHAR char10308
ENCODING 10308
SWIDTH 560 0
DWIDTH 7 0
BBX 7 12 0 -2
BITMAP
00
00
00
00
00
00
00
60
60
00
60
60
ENDCHAR
STARTCHAR char10309
ENCODING 10309
SWIDTH 560 0
DWIDTH 7 0
BBX 7 12 0 -2
BITMAP
00
60
60
00
00
00
00
60
60
00
60
60
ENDCHAR
STARTCHAR char10310
ENCODING 10310
SWIDTH 560 0
DWIDTH 7 0
BBX 7 12 0 -2
BITMAP
00
00
00
00
60
60
00
60
60
00
60
60
ENDCHAR
STARTCHAR char10311
ENCODING 10311
SWIDTH 560 0
DWIDTH 7 0
BBX 7 12 0 -2
BITMAP
00
60
60
00
60
60
00
60
60
00
60
60
ENDCHAR
STARTCHAR char10312
ENCODING 10312
SWIDTH 560 0
DWIDTH 7 0
BBX 7 12 0 -2
BITMAP
00
0C
0C
00
00
00
00
00
00
00
60
60
ENDCHAR
STARTCHAR char10313
ENCODING 10313
SWIDTH 560 0
DWIDTH 7 0
BBX 7 12 0 -2
BITMAP
00
6C
6C
00
00
00
00
00
00
00
60
60
ENDCHAR
STARTCHAR char10314
ENCODING 10314
SWIDTH 560 0
DWIDTH 7 0
BBX 7 12 0 -2
BITMAP
00
0C
0C
00
60
60
00
00
00
00
60
60
ENDCHAR
STARTCHAR char10315
ENCODING 10315
SWIDTH 560 0
DWIDTH 7 0
BBX 7 12 0 -2
BITMAP
00
6C
6C
00
60
60
00
00
00
00
60
60
ENDCHAR
STARTCHAR char10316
ENCODING 10316
SWIDTH 560 0
DWIDTH 7 0
BBX 7 12 0 -2
BITMAP
00
0C
0C
00
00
00
00
60
60
00
60
60
ENDCHAR
STARTCHAR char10317
ENCODING 10317
SWIDTH 560 0
DWIDTH 7 0
BBX 7 12 0 -2
BITMAP
00
6C
6C
00
00
00
00
60
60
00
60
60
ENDCHAR
STARTCHAR char10318
ENCODING 10318
SWIDTH 560 0
DWIDTH 7 0
BBX 7 12 0 -2
BITMAP
00
0C
0C
00
60
60
00
60
60
00
60
60
ENDCHAR
STARTCHAR char10319
ENCODING 10319
SWIDTH 560 0
DWIDTH 7 0
BBX 7 12 0 -2
BITMAP
00
6C
6C
00
60
60
00
60
60
00
60
60
ENDCHAR
STARTCHAR char10320
ENCODING 10320
SWIDTH 560 0
DWIDTH 7 0
BBX 7 12 0 -2
BITMAP
00
00
00
00
0C
0C
00
00
00
00
60
60
ENDCHAR
STARTCHAR char10321
ENCODING 10321
SWIDTH 560 0
DWIDTH 7 0
BBX 7 12 0 -2
BITMAP
00
60
60
00
0C
0C
00
00
00
00
60
60
ENDCHAR
STARTCHAR char10322
ENCODING 10322
SWIDTH 560 0
DWIDTH 7 0
BBX 7 12 0 -2
BITMAP
00
00
00
00
6C
6C
00
00
00
00
60
60
ENDCHAR
STARTCHAR char10323
ENCODING 10323
SWIDTH 560 0
DWIDTH 7 0
BBX 7 12 0 -2
BITMAP
00
60
60
00
6C
6C
00
00
00
00
60
60
ENDCHAR
STARTCHAR char10324
ENCODING 10324
SWIDTH 560 0
DWIDTH 7 0
BBX 7 12 0 -2
BITMAP
00
00
00
00
0C
0C
00
60
60
00
60
60
ENDCHAR
STARTCHAR char10325
ENCODING 10325
SWIDTH 560 0
DWIDTH 7 0
BBX 7 12 0 -2
BITMAP
00
60
60
00
0C
0C
00
60
60
00
60
60
ENDCHAR
STARTCHAR char10326
ENCODING 10326
SWIDTH 560 0
DWIDTH 7 0
BBX 7 12 0 -2
BITMAP
00
00
00
00
6C
6C
00
60
60
00
60
60
ENDCHAR
STARTCHAR char10327
ENCODING 10327
SWIDTH 560 0
DWIDTH 7 0
BBX 7 12 0 -2
BITMAP
00
60
60
00
6C
6C
00
60
60
00
60
60
ENDCHAR
STARTCHAR char10328
ENCODING 10328
SWIDTH 560 0
DWIDTH 7 0
BBX 7 12 0 -2
BITMAP
00
0C
0C
00
0C
0C
00
00
00
00
60
60
ENDCHAR
STARTCHAR char10329
ENCODING 10329
SWIDTH 560 0
DWIDTH 7 0
BBX 7 12 0 -2
BITMAP
00
6C
6C
00
0C
0C
00
00
00
00
60
60
ENDCHAR
STARTCHAR char10330
ENCODING 10330
SWIDTH 560 0
DWIDTH 7 0
BBX 7 12 0 -2
BITMAP
00
0C
0C
00
6C
6C
00
00
00
00
60
60
ENDCHAR
STARTCHAR char10331
ENCODING 10331
SWIDTH 560 0
DWIDTH 7 0
BBX 7 12 0 -2
BITMAP
00
6C
6C
00
6C
6C
00
00
00
00
60
60
ENDCHAR
STARTCHAR char10332
ENCODING 10332
SWIDTH 560 0
DWIDTH 7 0
BBX 7 12 0 -2
BITMAP
00
0C
0C
00
0C
0C
00
60
60
00
60
60
ENDCHAR
STARTCHAR char10333
ENCODING 10333
SWIDTH 560 0
DWIDTH 7 0
BBX 7 12 0 -2
BITMAP
00
6C
6C
00
0C
0C
00
60
60
00
60
60
ENDCHAR
STARTCHAR char10334
ENCODING 10334
SWIDTH 560 0
DWIDTH 7 0
BBX 7 12 0 -2
BITMAP
00
0C
0C
00
6C
6C
00
60
60
00
60
60
ENDCHAR
STARTCHAR char10335
ENCODING 10335
SWIDTH 560 0
DWIDTH 7 0
BBX 7 12 0 -2
BITMAP
00
6C
6C
00
6C
6C
00
60
60
00
60
60
ENDCHAR
STARTCHAR char10336
ENCODING 10336
SWIDTH 560 0
DWIDTH 7 0
BBX 7 12 0 -2
BITMAP
00
00
00
00
00
00
00
0C
0C
00
60
60
ENDCHAR
STARTCHAR char10337
ENCODING 10337
SWIDTH 560 0
DWIDTH 7 0
BBX 7 12 0 -2
BITMAP
00
60
60
00
00
00
00
0C
0C
00
60
60
ENDCHAR
STARTCHAR char10338
ENCODING 10338
SWIDTH 560 0
DWIDTH 7 0
BBX 7 12 0 -2
BITMAP
00
00
00
00
60
60
00
0C
0C
00
60
60
ENDCHAR
STARTCHAR char10339
ENCODING 10339
SWIDTH 560 0
DWIDTH 7 0
BBX 7 12 0 -2
BITMAP
00
60
60
00
60
60
00
0C
0C
00
60
60
ENDCHAR
STARTCHAR char10340
ENCODING 10340
SWIDTH 560 0
DWIDTH 7 0
BBX 7 12 0 -2
BITMAP
00
00
00
00
00
00
00
6C
6C
00
60
60
ENDCHAR
STARTCHAR char10341
ENCODING 10341
SWIDTH 560 0
DWIDTH 7 0
BBX 7 12 0 -2
BITMAP
00
60
60
00
00
00
00
6C
6C
00
60
60
ENDCHAR
STARTCHAR char10342
ENCODING 10342
SWIDTH 560 0
DWIDTH 7 0
BBX 7 12 0 -2
BITMAP
00
00
00
00
60
60
00
6C
6C
00
60
60
ENDCHAR
STARTCHAR char10343
ENCODING 10343
SWIDTH 560 0
DWIDTH 7 0
BBX 7 12 0 -2
BITMAP
00
60
60
00
60
60
00
6C
6C
00
60
60
ENDCHAR
STARTCHAR char10344
ENCODING 10344
SWIDTH 560 0
DWIDTH 7 0
BBX 7 12 0 -2
BITMAP
00
0C
0C
00
00
00
00
0C
0C
00
60
60
ENDCHAR
STARTCHAR char10345
ENCODING 10345
SWIDTH 560 0
DWIDTH 7 0
BBX 7 12 0 -2
BITMAP
00
6C
6C
00
00
00
00
0C
0C
00
60
60
ENDCHAR
STARTCHAR char10346
ENCODING 10346
SWIDTH 560 0
DWIDTH 7 0
BBX 7 12 0 -2
BITMAP
00
0C
0C
00
60
60
00
0C
0C
00
60
60
ENDCHAR
STARTCHAR char10347
ENCODING 10347
SWIDTH 560 0
DWIDTH 7 0
BBX 7 12 0 -2
BITMAP
00
6C
6C
00
60
60
00
0C
0C
00
60
60
ENDCHAR
STARTCHAR char10348
ENCODING 10348
SWIDTH 560 0
DWIDTH 7 0
BBX 7 12 0 -2
BITMAP
00
0C
0C
00
00
00
00
6C
6C
00
60
60
ENDCHAR
STARTCHAR char10349
ENCODING 10349
SWIDTH 560 0
DWIDTH 7 0
BBX 7 12 0 -2
BITMAP
00
6C
6C
00
00
00
00
6C
6C
00
60
60
ENDCHAR
STARTCHAR char10350
ENCODING 10350
SWIDTH 560 0
DWIDTH 7 0
BBX 7 12 0 -2
BITMAP
00
0C
0C
00
60
60
00
6C
6C
00
60
60
ENDCHAR
STARTCHAR char10351
ENCODING 10351
SWIDTH 560 0
DWIDTH 7 0
BBX 7 12 0 -2
BITMAP
00
6C
6C
00
60
60
00
6C
6C
00
60
60
ENDCHAR
STARTCHAR char10352
ENCODING 10352
SWIDTH 560 0
DWIDTH 7 0
BBX 7 12 0 -2
BITMAP
00
00
00
00
0C
0C
00
0C
0C
00
60
60
ENDCHAR
STARTCHAR char10353
ENCODING 10353
SWIDTH 560 0
DWIDTH 7 0
BBX 7 12 0 -2
BITMAP
00
60
60
00
0C
0C
00
0C
0C
00
60
60
ENDCHAR
STARTCHAR char10354
ENCODING 10354
SWIDTH 560 0
DWIDTH 7 0
BBX 7 12 0 -2
BITMAP
00
00
00
00
6C
6C
00
0C
0C
00
60
60
ENDCHAR
STARTCHAR char10355
ENCODING 10355
SWIDTH 560 0
DWIDTH 7 0
BBX 7 12 0 -2
BITMAP
00
60
60
00
6C
6C
00
0C
0C
00
60
60
ENDCHAR
STARTCHAR char10356
ENCODING 10356
SWIDTH 560 0
DWIDTH 7 0
BBX 7 12 0 -2
BITMAP
00
00
00
00
0C
0C
00
6C
6C
00
60
60
ENDCHAR
STARTCHAR char10357
ENCODING 10357
SWIDTH 560 0
DWIDTH 7 0
BBX 7 12 0 -2
BITMAP
00
60
60
00
0C
0C
00
6C
6C
00
60
60
ENDCHAR
STARTCHAR char10358
ENCODING 10358
SWIDTH 560 0
DWIDTH 7 0
BBX 7 12 0 -2
BITMAP
00
00
00
00
6C
6C
00
6C
6C
00
60
60
ENDCHAR
STARTCHAR char10359
ENCODING 10359
SWIDTH 560 0
DWIDTH 7 0
BBX 7 12 0 -2
BITMAP
00
60
60
00
6C
6C
00
6C
6C
00
60
60
ENDCHAR
STARTCHAR char10360
ENCODING 10360
SWIDTH 560 0
DWIDTH 7 0
BBX 7 12 0 -2
BITMAP
00
0C
0C
00
0C
0C
00
0C
0C
00
60
60
ENDCHAR
STARTCHAR char10361
ENCODING 10361
SWIDTH 560 0
DWIDTH 7 0
BBX 7 12 0 -2
BITMAP
00
6C
6C
00
0C
0C
00
0C
0C
00
60
60
ENDCHAR
STARTCHAR char10362
ENCODING 10362
SWIDTH 560 0
DWIDTH 7 0
BBX 7 12 0 -2
BITMAP
00
0C
0C
00
6C
6C
00
0C
0C
00
60
60
ENDCHAR
STARTCHAR char10363
ENCODING 10363
SWIDTH 560 0
DWIDTH 7 0
BBX 7 12 0 -2
BITMAP
00
6C
6C
00
6C
6C
00
0C
0C
00
60
60
ENDCHAR
STARTCHAR char10364
ENCODING 10364
SWIDTH 560 0
DWIDTH 7 0
BBX 7 12 0 -2
BITMAP
00
0C
0C
00
0C
0C
00
6C
6C
00
60
60
ENDCHAR
STARTCHAR char10365
ENCODING 10365
SWIDTH 560 0
DWIDTH 7 0
BBX 7 12 0 -2
BITMAP
00
6C
6C
00
0C
0C
00
6C
6C
00
60
60
ENDCHAR
STARTCHAR char10366
ENCODING 10366
SWIDTH 560 0
DWIDTH 7 0
BBX 7 12 0 -2
BITMAP
00
0C
0C
00
6C
6C
00
6C
6C
00
60
60
ENDCHAR
STARTCHAR char10367
ENCODING 10367
SWIDTH 560 0
DWIDTH 7 0
BBX 7 12 0 -2
BITMAP
00
6C
6C
00
6C
6C
00
6C
6C
00
60
60
ENDCHAR
STARTCHAR char10368
ENCODING 10368
SWIDTH 560 0
DWIDTH 7 0
BBX 7 12 0 -2
BITMAP
00
00
00
00
00
00
00
00
00
00
0C
0C
ENDCHAR
STARTCHAR char10495
ENCODING 10495
SWIDTH 560 0
DWIDTH 7 0
BBX 7 12 0 -2
BITMAP
00
6C
6C
00
6C
6C
00
6C
6C
00
6C
6C
ENDCHAR
STARTCHAR char9765
ENCODING 10624
SWIDTH 560 0
DWIDTH 7 0
BBX 7 12 0 -2
BITMAP
00
00
82
82
AA
AA
AA
AA
82
82
00
00
ENDCHAR
STARTCHAR char10686
ENCODING 10686
SWIDTH 560 0
DWIDTH 7 0
BBX 7 12 0 -2
BITMAP
00
00
00
38
44
92
AA
92
44
38
00
00
ENDCHAR
STARTCHAR char10687
ENCODING 10687
SWIDTH 560 0
DWIDTH 7 0
BBX 7 12 0 -2
BITMAP
00
00
00
38
44
BA
BA
BA
44
38
00
00
ENDCHAR
STARTCHAR char11088
ENCODING 11088
SWIDTH 560 0
DWIDTH 7 0
BBX 7 12 0 -2
BITMAP
00
00
00
10
10
7C
28
38
44
00
00
00
ENDCHAR
STARTCHAR char11103
ENCODING 11103
SWIDTH 560 0
DWIDTH 7 0
BBX 7 12 0 -2
BITMAP
00
A8
00
A8
00
A8
00
A8
00
A8
00
00
ENDCHAR
STARTCHAR char11104
ENCODING 11104
SWIDTH 560 0
DWIDTH 7 0
BBX 7 12 0 -2
BITMAP
00
60
60
64
6E
64
64
48
30
60
60
00
ENDCHAR
STARTCHAR char11105
ENCODING 11105
SWIDTH 560 0
DWIDTH 7 0
BBX 7 12 0 -2
BITMAP
00
00
60
60
60
78
00
68
68
58
58
00
ENDCHAR
STARTCHAR char11106
ENCODING 11106
SWIDTH 560 0
DWIDTH 7 0
BBX 7 12 0 -2
BITMAP
00
00
3C
40
4C
4C
40
4C
48
48
30
00
ENDCHAR
STARTCHAR char11107
ENCODING 11107
SWIDTH 560 0
DWIDTH 7 0
BBX 7 12 0 -2
BITMAP
00
00
3C
02
4C
48
48
48
48
48
30
00
ENDCHAR
STARTCHAR char11108
ENCODING 11108
SWIDTH 560 0
DWIDTH 7 0
BBX 7 12 0 -2
BITMAP
00
10
28
28
28
7C
6C
6C
7C
38
00
00
ENDCHAR
STARTCHAR char11105
ENCODING 11109
SWIDTH 560 0
DWIDTH 7 0
BBX 7 12 0 -2
BITMAP
00
3C
30
30
3C
00
34
34
2C
2C
00
00
ENDCHAR
STARTCHAR char11116
ENCODING 11116
SWIDTH 560 0
DWIDTH 7 0
BBX 7 12 0 -2
BITMAP
00
00
00
7C
00
10
10
7C
10
10
00
00
ENDCHAR
STARTCHAR char11136
ENCODING 11136
SWIDTH 560 0
DWIDTH 7 0
BBX 7 12 0 -2
BITMAP
80
C0
E0
F0
F8
FC
FC
F8
F0
E0
C0
80
ENDCHAR
STARTCHAR char11137
ENCODING 11137
SWIDTH 560 0
DWIDTH 7 0
BBX 7 12 0 -2
BITMAP
80
40
20
10
08
04
04
08
10
20
40
80
ENDCHAR
STARTCHAR char11138
ENCODING 11138
SWIDTH 560 0
DWIDTH 7 0
BBX 7 12 0 -2
BITMAP
02
06
0E
1E
3E
7E
7E
3E
1E
0E
06
02
ENDCHAR
STARTCHAR char11139
ENCODING 11139
SWIDTH 560 0
DWIDTH 7 0
BBX 7 12 0 -2
BITMAP
02
04
08
10
20
40
40
20
10
08
04
02
ENDCHAR
STARTCHAR char42240
ENCODING 42240
SWIDTH 560 0
DWIDTH 7 0
BBX 7 12 0 -2
BITMAP
00
10
92
82
C6
44
6C
28
38
10
10
00
ENDCHAR
STARTCHAR char42241
ENCODING 42241
SWIDTH 560 0
DWIDTH 7 0
BBX 7 12 0 -2
BITMAP
00
08
16
12
7C
D6
FE
54
6C
38
00
00
ENDCHAR
STARTCHAR char42242
ENCODING 42242
SWIDTH 560 0
DWIDTH 7 0
BBX 7 12 0 -2
BITMAP
00
0C
12
92
DE
FC
78
48
48
30
00
00
ENDCHAR
STARTCHAR char42243
ENCODING 42243
SWIDTH 560 0
DWIDTH 7 0
BBX 7 12 0 -2
BITMAP
00
00
6E
9E
9E
2C
52
A2
CC
00
00
00
ENDCHAR
STARTCHAR char42244
ENCODING 42244
SWIDTH 560 0
DWIDTH 7 0
BBX 7 12 0 -2
BITMAP
00
00
FE
82
FE
AA
A2
BE
A2
FE
00
00
ENDCHAR
STARTCHAR char115
ENCODING 42245
SWIDTH 560 0
DWIDTH 7 0
BBX 7 12 0 -2
BITMAP
00
00
3C
40
78
04
04
78
00
AA
54
00
ENDCHAR
STARTCHAR char57354
ENCODING 57354
SWIDTH 560 0
DWIDTH 7 0
BBX 7 12 0 -2
BITMAP
00
00
1C
18
30
7C
98
30
20
40
00
00
ENDCHAR
STARTCHAR char57366
ENCODING 57366
SWIDTH 560 0
DWIDTH 7 0
BBX 7 12 0 -2
BITMAP
10
10
10
10
10
10
10
10
10
10
10
10
ENDCHAR
STARTCHAR char57504
ENCODING 57504
SWIDTH 560 0
DWIDTH 7 0
BBX 7 12 0 -2
BITMAP
00
60
60
64
6E
64
64
48
30
60
60
00
ENDCHAR
STARTCHAR char57505
ENCODING 57505
SWIDTH 560 0
DWIDTH 7 0
BBX 7 12 0 -2
BITMAP
00
00
60
60
60
78
00
68
68
58
58
00
ENDCHAR
STARTCHAR char57506
ENCODING 57506
SWIDTH 560 0
DWIDTH 7 0
BBX 7 12 0 -2
BITMAP
00
10
28
28
28
7C
6C
6C
7C
38
00
00
ENDCHAR
STARTCHAR char57505
ENCODING 57507
SWIDTH 560 0
DWIDTH 7 0
BBX 7 12 0 -2
BITMAP
00
3C
30
30
3C
00
34
34
2C
2C
00
00
ENDCHAR
STARTCHAR char57509
ENCODING 57509
SWIDTH 560 0
DWIDTH 7 0
BBX 7 12 0 -2
BITMAP
00
00
00
FE
AA
AA
AA
FE
92
FE
00
00
ENDCHAR
STARTCHAR char57510
ENCODING 57510
SWIDTH 560 0
DWIDTH 7 0
BBX 7 12 0 -2
BITMAP
00
00
00
FE
A2
BE
E2
BE
A2
FE
00
00
ENDCHAR
STARTCHAR char57511
ENCODING 57511
SWIDTH 560 0
DWIDTH 7 0
BBX 7 12 0 -2
BITMAP
00
00
00
F8
88
BE
A2
E2
22
3E
00
00
ENDCHAR
STARTCHAR char57512
ENCODING 57512
SWIDTH 560 0
DWIDTH 7 0
BBX 7 12 0 -2
BITMAP
00
00
00
EE
C6
AA
10
AA
C6
EE
00
00
ENDCHAR
STARTCHAR char57513
ENCODING 57513
SWIDTH 560 0
DWIDTH 7 0
BBX 7 12 0 -2
BITMAP
00
00
00
F6
F6
06
C6
C0
DE
DE
00
00
ENDCHAR
STARTCHAR char57514
ENCODING 57514
SWIDTH 560 0
DWIDTH 7 0
BBX 7 12 0 -2
BITMAP
00
00
00
FE
82
82
82
FE
8A
FE
00
00
ENDCHAR
STARTCHAR char57515
ENCODING 57515
SWIDTH 560 0
DWIDTH 7 0
BBX 7 12 0 -2
BITMAP
00
00
00
FE
A2
A2
A2
E2
A2
FE
00
00
ENDCHAR
STARTCHAR char57516
ENCODING 57516
SWIDTH 560 0
DWIDTH 7 0
BBX 7 12 0 -2
BITMAP
00
00
00
FE
8A
8A
8A
8E
8A
FE
00
00
ENDCHAR
STARTCHAR char57520
ENCODING 57520
SWIDTH 560 0
DWIDTH 7 0
BBX 7 12 0 -2
BITMAP
80
C0
E0
F0
F8
FC
FC
F8
F0
E0
C0
80
ENDCHAR
STARTCHAR char57521
ENCODING 57521
SWIDTH 560 0
DWIDTH 7 0
BBX 7 12 0 -2
BITMAP
80
40
20
10
08
04
04
08
10
20
40
80
ENDCHAR
STARTCHAR char57522
ENCODING 57522
SWIDTH 560 0
DWIDTH 7 0
BBX 7 12 0 -2
BITMAP
02
06
0E
1E
3E
7E
7E
3E
1E
0E
06
02
ENDCHAR
STARTCHAR char57523
ENCODING 57523
SWIDTH 560 0
DWIDTH 7 0
BBX 7 12 0 -2
BITMAP
02
04
08
10
20
40
40
20
10
08
04
02
ENDCHAR
STARTCHAR char57871
ENCODING 57871
SWIDTH 560 0
DWIDTH 7 0
BBX 7 12 0 -2
BITMAP
00
00
30
12
B4
F8
18
3C
66
42
00
00
ENDCHAR
STARTCHAR char57905
ENCODING 57905
SWIDTH 560 0
DWIDTH 7 0
BBX 7 12 0 -2
BITMAP
00
00
38
7C
54
7C
6C
38
28
82
7C
82
ENDCHAR
STARTCHAR char57920
ENCODING 57920
SWIDTH 560 0
DWIDTH 7 0
BBX 7 12 0 -2
BITMAP
00
00
00
F8
AC
8E
FE
C6
C6
FE
00
00
ENDCHAR
STARTCHAR char59192
ENCODING 57942
SWIDTH 560 0
DWIDTH 7 0
BBX 7 12 0 -2
BITMAP
00
08
10
28
10
44
7C
38
82
7C
00
00
ENDCHAR
STARTCHAR char9764
ENCODING 57961
SWIDTH 560 0
DWIDTH 7 0
BBX 7 12 0 -2
BITMAP
00
00
00
6C
BA
7C
BA
BA
44
44
00
00
ENDCHAR
STARTCHAR char58133
ENCODING 58133
SWIDTH 560 0
DWIDTH 7 0
BBX 7 12 0 -2
BITMAP
00
1C
18
30
7E
94
28
5E
A4
08
10
00
ENDCHAR
STARTCHAR char9761
ENCODING 58190
SWIDTH 560 0
DWIDTH 7 0
BBX 7 12 0 -2
BITMAP
00
00
20
06
4A
14
68
90
90
60
00
00
ENDCHAR
STARTCHAR char9761
ENCODING 58192
SWIDTH 560 0
DWIDTH 7 0
BBX 7 12 0 -2
BITMAP
00
00
20
06
4A
14
78
F0
F0
60
00
00
ENDCHAR
STARTCHAR char9751
ENCODING 58205
SWIDTH 560 0
DWIDTH 7 0
BBX 7 12 0 -2
BITMAP
00
00
00
00
BA
00
D6
00
7C
00
00
00
ENDCHAR
STARTCHAR char58218
ENCODING 58218
SWIDTH 560 0
DWIDTH 7 0
BBX 7 12 0 -2
BITMAP
00
02
0C
12
3C
7A
9C
8C
88
70
00
00
ENDCHAR
STARTCHAR char58875
ENCODING 58875
SWIDTH 560 0
DWIDTH 7 0
BBX 7 12 0 -2
BITMAP
00
00
00
B0
AE
AE
DE
BE
BE
00
00
00
ENDCHAR
STARTCHAR char58878
ENCODING 58878
SWIDTH 560 0
DWIDTH 7 0
BBX 7 12 0 -2
BITMAP
00
00
00
F0
9E
82
BE
FE
FE
00
00
00
ENDCHAR
STARTCHAR char58879
ENCODING 58879
SWIDTH 560 0
DWIDTH 7 0
BBX 7 12 0 -2
BITMAP
00
00
00
F0
9E
FE
FE
FE
FE
00
00
00
ENDCHAR
STARTCHAR char9762
ENCODING 58881
SWIDTH 560 0
DWIDTH 7 0
BBX 7 12 0 -2
BITMAP
00
FE
00
F8
00
FC
00
F8
00
FC
00
00
ENDCHAR
STARTCHAR char59193
ENCODING 58885
SWIDTH 560 0
DWIDTH 7 0
BBX 7 12 0 -2
BITMAP
00
00
00
0E
1A
36
66
DA
9E
FE
00
00
ENDCHAR
STARTCHAR char58886
ENCODING 58886
SWIDTH 560 0
DWIDTH 7 0
BBX 7 12 0 -2
BITMAP
00
00
78
58
FA
F2
9E
BE
34
3C
00
00
ENDCHAR
STARTCHAR char58888
ENCODING 58888
SWIDTH 560 0
DWIDTH 7 0
BBX 7 12 0 -2
BITMAP
00
00
60
50
5C
6A
4A
7C
48
48
00
00
ENDCHAR
STARTCHAR char58889
ENCODING 58889
SWIDTH 560 0
DWIDTH 7 0
BBX 7 12 0 -2
BITMAP
00
00
00
38
38
38
FE
7C
38
10
00
00
ENDCHAR
STARTCHAR char58890
ENCODING 58890
SWIDTH 560 0
DWIDTH 7 0
BBX 7 12 0 -2
BITMAP
00
00
30
4C
5A
7E
34
6C
24
6C
00
00
ENDCHAR
STARTCHAR char58891
ENCODING 58891
SWIDTH 560 0
DWIDTH 7 0
BBX 7 12 0 -2
BITMAP
00
00
00
28
44
44
82
44
44
28
00
00
ENDCHAR
STARTCHAR char58892
ENCODING 58892
SWIDTH 560 0
DWIDTH 7 0
BBX 7 12 0 -2
BITMAP
00
00
00
26
28
28
24
22
22
CC
00
00
ENDCHAR
STARTCHAR char58893
ENCODING 58893
SWIDTH 560 0
DWIDTH 7 0
BBX 7 12 0 -2
BITMAP
00
00
00
FC
84
BE
A2
AA
FA
3E
00
00
ENDCHAR
STARTCHAR char58894
ENCODING 58894
SWIDTH 560 0
DWIDTH 7 0
BBX 7 12 0 -2
BITMAP
00
00
00
28
44
82
82
44
28
00
00
00
ENDCHAR
STARTCHAR char58898
ENCODING 58898
SWIDTH 560 0
DWIDTH 7 0
BBX 7 12 0 -2
BITMAP
00
00
00
7C
10
D4
10
D6
00
F8
00
00
ENDCHAR
STARTCHAR char58900
ENCODING 58900
SWIDTH 560 0
DWIDTH 7 0
BBX 7 12 0 -2
BITMAP
00
00
28
28
7C
28
28
7C
28
28
00
00
ENDCHAR
STARTCHAR char58901
ENCODING 58901
SWIDTH 560 0
DWIDTH 7 0
BBX 7 12 0 -2
BITMAP
00
00
10
6C
5A
B0
B0
5A
6C
10
00
00
ENDCHAR
STARTCHAR char58905
ENCODING 58905
SWIDTH 560 0
DWIDTH 7 0
BBX 7 12 0 -2
BITMAP
00
00
00
70
08
64
12
4A
6A
00
00
00
ENDCHAR
STARTCHAR char58909
ENCODING 58909
SWIDTH 560 0
DWIDTH 7 0
BBX 7 12 0 -2
BITMAP
00
00
38
7C
CE
BA
B0
CA
7C
38
00
00
ENDCHAR
STARTCHAR char58910
ENCODING 58910
SWIDTH 560 0
DWIDTH 7 0
BBX 7 12 0 -2
BITMAP
00
00
38
7C
E6
DE
DE
E6
7C
38
00
00
ENDCHAR
STARTCHAR char58911
ENCODING 58911
SWIDTH 560 0
DWIDTH 7 0
BBX 7 12 0 -2
BITMAP
00
00
00
A0
56
28
2A
54
A2
00
00
00
ENDCHAR
STARTCHAR char58912
ENCODING 58912
SWIDTH 560 0
DWIDTH 7 0
BBX 7 12 0 -2
BITMAP
00
00
06
76
E0
B4
BC
CC
78
00
00
00
ENDCHAR
STARTCHAR char58913
ENCODING 58913
SWIDTH 560 0
DWIDTH 7 0
BBX 7 12 0 -2
BITMAP
00
10
00
10
00
10
00
10
00
10
00
10
ENDCHAR
STARTCHAR char58915
ENCODING 58915
SWIDTH 560 0
DWIDTH 7 0
BBX 7 12 0 -2
BITMAP
00
00
10
10
38
FE
38
7C
6C
82
00
00
ENDCHAR
STARTCHAR char58919
ENCODING 58919
SWIDTH 560 0
DWIDTH 7 0
BBX 7 12 0 -2
BITMAP
00
00
38
7C
54
7C
EE
7C
7C
7C
00
00
ENDCHAR
STARTCHAR char59151
ENCODING 58922
SWIDTH 560 0
DWIDTH 7 0
BBX 7 12 0 -2
BITMAP
00
00
00
EE
EE
EE
00
EE
EE
EE
00
00
ENDCHAR
STARTCHAR char58923
ENCODING 58923
SWIDTH 560 0
DWIDTH 7 0
BBX 7 12 0 -2
BITMAP
00
00
00
DE
CC
D8
F0
EE
DA
AA
00
00
ENDCHAR
STARTCHAR char59142
ENCODING 59142
SWIDTH 560 0
DWIDTH 7 0
BBX 7 12 0 -2
BITMAP
00
38
44
92
44
BA
44
BA
44
38
00
00
ENDCHAR
STARTCHAR char59151
ENCODING 59151
SWIDTH 560 0
DWIDTH 7 0
BBX 7 12 0 -2
BITMAP
00
00
00
EE
EE
EE
00
EE
EE
EE
00
00
ENDCHAR
STARTCHAR char59154
ENCODING 59154
SWIDTH 560 0
DWIDTH 7 0
BBX 7 12 0 -2
BITMAP
00
00
18
2C
3C
26
46
46
B4
6C
00
00
ENDCHAR
STARTCHAR char59176
ENCODING 59176
SWIDTH 560 0
DWIDTH 7 0
BBX 7 12 0 -2
BITMAP
00
00
10
BE
12
82
82
90
FA
10
00
00
ENDCHAR
STARTCHAR char59192
ENCODING 59192
SWIDTH 560 0
DWIDTH 7 0
BBX 7 12 0 -2
BITMAP
00
08
10
28
10
44
7C
38
82
7C
00
00
ENDCHAR
STARTCHAR char59193
ENCODING 59193
SWIDTH 560 0
DWIDTH 7 0
BBX 7 12 0 -2
BITMAP
00
00
00
0E
1A
36
66
DA
9E
FE
00
00
ENDCHAR
STARTCHAR char59203
ENCODING 59203
SWIDTH 560 0
DWIDTH 7 0
BBX 7 12 0 -2
BITMAP
00
00
00
3C
BE
C2
D4
C6
EE
5C
00
00
ENDCHAR
STARTCHAR char59205
ENCODING 59205
SWIDTH 560 0
DWIDTH 7 0
BBX 7 12 0 -2
BITMAP
00
00
00
38
4C
E6
F6
EE
7C
38
00
00
ENDCHAR
STARTCHAR char59241
ENCODING 59241
SWIDTH 560 0
DWIDTH 7 0
BBX 7 12 0 -2
BITMAP
00
00
18
3C
FC
FE
7E
2A
2A
68
00
00
ENDCHAR
STARTCHAR char59261
ENCODING 59261
SWIDTH 560 0
DWIDTH 7 0
BBX 7 12 0 -2
BITMAP
00
00
3C
66
DA
B2
B6
9C
80
40
20
00
ENDCHAR
STARTCHAR char59264
ENCODING 59264
SWIDTH 560 0
DWIDTH 7 0
BBX 7 12 0 -2
BITMAP
00
10
10
38
78
DA
EE
AE
C6
44
48
00
ENDCHAR
STARTCHAR char59281
ENCODING 59281
SWIDTH 560 0
DWIDTH 7 0
BBX 7 12 0 -2
BITMAP
00
00
00
0E
1A
36
66
DA
9E
FE
00
00
ENDCHAR
STARTCHAR char59285
ENCODING 59285
SWIDTH 560 0
DWIDTH 7 0
BBX 7 12 0 -2
BITMAP
00
00
FE
BE
DE
BE
E6
FE
FE
00
00
00
ENDCHAR
STARTCHAR char59289
ENCODING 59289
SWIDTH 560 0
DWIDTH 7 0
BBX 7 12 0 -2
BITMAP
00
00
00
DA
7E
EC
C6
6E
FC
B6
00
00
ENDCHAR
STARTCHAR char59320
ENCODING 59320
SWIDTH 560 0
DWIDTH 7 0
BBX 7 12 0 -2
BITMAP
00
00
04
0C
3C
74
6C
5C
78
C0
00
00
ENDCHAR
STARTCHAR char59332
ENCODING 59332
SWIDTH 560 0
DWIDTH 7 0
BBX 7 12 0 -2
BITMAP
00
00
04
0C
3C
74
6C
5C
78
C0
00
00
ENDCHAR
STARTCHAR char59333
ENCODING 59333
SWIDTH 560 0
DWIDTH 7 0
BBX 7 12 0 -2
BITMAP
00
00
00
DE
CC
D8
F0
EE
DA
AA
00
00
ENDCHAR
STARTCHAR char61440
ENCODING 61440
SWIDTH 560 0
DWIDTH 7 0
BBX 7 12 0 -2
BITMAP
00
00
3E
3E
22
22
22
22
EE
EE
00
00
ENDCHAR
STARTCHAR char61441
ENCODING 61441
SWIDTH 560 0
DWIDTH 7 0
BBX 7 12 0 -2
BITMAP
00
00
3E
3E
22
22
22
22
EE
EE
00
00
ENDCHAR
STARTCHAR char61442
ENCODING 61442
SWIDTH 560 0
DWIDTH 7 0
BBX 7 12 0 -2
BITMAP
00
00
3E
3E
22
22
22
22
EE
EE
00
00
ENDCHAR
STARTCHAR char61443
ENCODING 61443
SWIDTH 560 0
DWIDTH 7 0
BBX 7 12 0 -2
BITMAP
00
00
3E
3E
22
22
22
22
EE
EE
00
00
ENDCHAR
STARTCHAR char61448
ENCODING 61448
SWIDTH 560 0
DWIDTH 7 0
BBX 7 12 0 -2
BITMAP
00
00
90
98
9C
9E
9E
9C
98
90
00
00
ENDCHAR
STARTCHAR char61485
ENCODING 61485
SWIDTH 560 0
DWIDTH 7 0
BBX 7 12 0 -2
BITMAP
00
40
A0
40
20
14
2A
44
A0
40
00
00
ENDCHAR
STARTCHAR char61512
ENCODING 61512
SWIDTH 560 0
DWIDTH 7 0
BBX 7 12 0 -2
BITMAP
00
00
00
C2
C6
CE
CE
CE
C6
C2
00
00
ENDCHAR
STARTCHAR char61514
ENCODING 61514
SWIDTH 560 0
DWIDTH 7 0
BBX 7 12 0 -2
BITMAP
00
00
00
22
66
EE
EE
EE
66
22
00
00
ENDCHAR
STARTCHAR char61515
ENCODING 61515
SWIDTH 560 0
DWIDTH 7 0
BBX 7 12 0 -2
BITMAP
00
00
00
C0
F0
FC
FE
FC
F0
C0
00
00
ENDCHAR
STARTCHAR char61516
ENCODING 61516
SWIDTH 560 0
DWIDTH 7 0
BBX 7 12 0 -2
BITMAP
00
00
00
C6
C6
C6
C6
C6
C6
C6
00
00
ENDCHAR
STARTCHAR char61517
ENCODING 61517
SWIDTH 560 0
DWIDTH 7 0
BBX 7 12 0 -2
BITMAP
00
00
00
FE
FE
FE
FE
FE
FE
FE
00
00
ENDCHAR
STARTCHAR char61518
ENCODING 61518
SWIDTH 560 0
DWIDTH 7 0
BBX 7 12 0 -2
BITMAP
00
00
00
88
CC
EE
EE
EE
CC
88
00
00
ENDCHAR
STARTCHAR char61521
ENCODING 61521
SWIDTH 560 0
DWIDTH 7 0
BBX 7 12 0 -2
BITMAP
00
00
00
86
C6
E6
E6
E6
C6
86
00
00
ENDCHAR
STARTCHAR char61522
ENCODING 61522
SWIDTH 560 0
DWIDTH 7 0
BBX 7 12 0 -2
BITMAP
00
00
00
38
7C
FE
00
00
FE
FE
00
00
ENDCHAR
STARTCHAR char61555
ENCODING 61555
SWIDTH 560 0
DWIDTH 7 0
BBX 7 12 0 -2
BITMAP
00
00
00
44
FE
FE
AA
FE
AA
FE
00
00
ENDCHAR
STARTCHAR char61556
ENCODING 61556
SWIDTH 560 0
DWIDTH 7 0
BBX 7 12 0 -2
BITMAP
00
00
08
8C
5E
74
20
74
5E
8C
08
00
ENDCHAR
STARTCHAR char61557
ENCODING 61557
SWIDTH 560 0
DWIDTH 7 0
BBX 7 12 0 -2
BITMAP
00
00
00
7C
FE
FE
FE
7C
18
10
20
00
ENDCHAR
STARTCHAR char9756
ENCODING 61603
SWIDTH 560 0
DWIDTH 7 0
BBX 7 12 0 -2
BITMAP
00
00
00
14
A0
3C
BA
78
0A
50
00
00
ENDCHAR
STARTCHAR char9751
ENCODING 61724
SWIDTH 560 0
DWIDTH 7 0
BBX 7 12 0 -2
BITMAP
00
00
00
00
BA
00
D6
00
7C
00
00
00
ENDCHAR
STARTCHAR char9767
ENCODING 61732
SWIDTH 560 0
DWIDTH 7 0
BBX 7 12 0 -2
BITMAP
00
00
00
E6
C8
A4
10
4E
A8
8A
00
00
ENDCHAR
STARTCHAR char9758
ENCODING 61736
SWIDTH 560 0
DWIDTH 7 0
BBX 7 12 0 -2
BITMAP
00
00
30
76
5E
3A
26
24
00
24
00
00
ENDCHAR
STARTCHAR char9733
ENCODING 61792
SWIDTH 560 0
DWIDTH 7 0
BBX 7 12 0 -2
BITMAP
00
00
42
A0
4A
00
2A
00
AA
AA
00
00
ENDCHAR
STARTCHAR char9732
ENCODING 61793
SWIDTH 560 0
DWIDTH 7 0
BBX 7 12 0 -2
BITMAP
00
00
42
E2
4A
0A
2A
2A
AA
AA
00
00
ENDCHAR
STARTCHAR char61818
ENCODING 61818
SWIDTH 560 0
DWIDTH 7 0
BBX 7 12 0 -2
BITMAP
00
00
00
EE
EE
EE
00
EE
EE
EE
00
00
ENDCHAR
STARTCHAR char61820
ENCODING 61820
SWIDTH 560 0
DWIDTH 7 0
BBX 7 12 0 -2
BITMAP
00
00
18
2C
3C
26
46
46
B4
6C
00
00
ENDCHAR
STARTCHAR char61831
ENCODING 61831
SWIDTH 560 0
DWIDTH 7 0
BBX 7 12 0 -2
BITMAP
00
00
00
5E
EE
DE
EE
DE
EC
00
00
00
ENDCHAR
STARTCHAR char9764
ENCODING 61832
SWIDTH 560 0
DWIDTH 7 0
BBX 7 12 0 -2
BITMAP
00
00
00
6C
BA
7C
BA
BA
44
44
00
00
ENDCHAR
STARTCHAR char9730
ENCODING 61888
SWIDTH 560 0
DWIDTH 7 0
BBX 7 12 0 -2
BITMAP
00
38
7C
FE
7C
BA
44
BA
44
38
00
00
ENDCHAR
STARTCHAR char9743
ENCODING 61926
SWIDTH 560 0
DWIDTH 7 0
BBX 7 12 0 -2
BITMAP
00
28
28
28
7C
7C
7C
38
10
14
08
00
ENDCHAR
STARTCHAR char61930
ENCODING 61930
SWIDTH 560 0
DWIDTH 7 0
BBX 7 12 0 -2
BITMAP
00
00
7C
82
AE
A2
AE
A2
92
7C
00
00
ENDCHAR
STARTCHAR char61982
ENCODING 61982
SWIDTH 560 0
DWIDTH 7 0
BBX 7 12 0 -2
BITMAP
00
00
00
6C
FE
D2
AE
6C
38
10
00
00
ENDCHAR
STARTCHAR char9738
ENCODING 62016
SWIDTH 560 0
DWIDTH 7 0
BBX 7 12 0 -2
BITMAP
00
38
FE
82
BA
BA
BA
BA
82
FE
00
00
ENDCHAR
STARTCHAR char9739
ENCODING 62017
SWIDTH 560 0
DWIDTH 7 0
BBX 7 12 0 -2
BITMAP
00
38
FE
82
82
BA
BA
BA
82
FE
00
00
ENDCHAR
STARTCHAR char9740
ENCODING 62018
SWIDTH 560 0
DWIDTH 7 0
BBX 7 12 0 -2
BITMAP
00
38
FE
82
82
82
BA
BA
82
FE
00
00
ENDCHAR
STARTCHAR char9741
ENCODING 62019
SWIDTH 560 0
DWIDTH 7 0
BBX 7 12 0 -2
BITMAP
00
38
FE
82
82
82
82
BA
82
FE
00
00
ENDCHAR
STARTCHAR char9742
ENCODING 62020
SWIDTH 560 0
DWIDTH 7 0
BBX 7 12 0 -2
BITMAP
00
38
FE
82
82
82
82
82
82
FE
00
00
ENDCHAR
STARTCHAR char9759
ENCODING 62085
SWIDTH 560 0
DWIDTH 7 0
BBX 7 12 0 -2
BITMAP
00
00
00
D2
3A
6C
C6
6C
B8
96
00
00
ENDCHAR
STARTCHAR char62086
ENCODING 62086
SWIDTH 560 0
DWIDTH 7 0
BBX 7 12 0 -2
BITMAP
00
00
28
28
BA
AA
FE
FE
EE
EE
00
00
ENDCHAR
STARTCHAR char9737
ENCODING 62112
SWIDTH 560 0
DWIDTH 7 0
BBX 7 12 0 -2
BITMAP
00
00
04
22
6A
EA
EA
EA
6A
22
04
00
ENDCHAR
STARTCHAR char9761
ENCODING 62151
SWIDTH 560 0
DWIDTH 7 0
BBX 7 12 0 -2
BITMAP
00
00
20
06
4E
1C
78
F0
F0
60
00
00
ENDCHAR
STARTCHAR char9761
ENCODING 62152
SWIDTH 560 0
DWIDTH 7 0
BBX 7 12 0 -2
BITMAP
00
00
20
06
4A
1C
78
F0
F0
60
00
00
ENDCHAR
STARTCHAR char9761
ENCODING 62153
SWIDTH 560 0
DWIDTH 7 0
BBX 7 12 0 -2
BITMAP
00
00
20
06
4A
14
78
F0
F0
60
00
00
ENDCHAR
STARTCHAR char9761
ENCODING 62154
SWIDTH 560 0
DWIDTH 7 0
BBX 7 12 0 -2
BITMAP
00
00
20
06
4A
14
68
F0
F0
60
00
00
ENDCHAR
STARTCHAR char9761
ENCODING 62155
SWIDTH 560 0
DWIDTH 7 0
BBX 7 12 0 -2
BITMAP
00
00
20
06
4A
14
68
D0
F0
60
00
00
ENDCHAR
STARTCHAR char9754
ENCODING 62160
SWIDTH 560 0
DWIDTH 7 0
BBX 7 12 0 -2
BITMAP
00
00
00
FE
FE
82
82
82
82
FE
00
00
ENDCHAR
STARTCHAR char9728
ENCODING 62170
SWIDTH 560 0
DWIDTH 7 0
BBX 7 12 0 -2
BITMAP
00
00
00
D6
82
38
BA
38
82
D6
00
00
ENDCHAR
STARTCHAR char9729
ENCODING 62171
SWIDTH 560 0
DWIDTH 7 0
BBX 7 12 0 -2
BITMAP
00
00
00
AA
00
FE
FE
FE
00
AA
00
00
ENDCHAR
STARTCHAR char62211
ENCODING 62211
SWIDTH 560 0
DWIDTH 7 0
BBX 7 12 0 -2
BITMAP
00
00
10
10
38
38
7C
6C
EE
82
00
00
ENDCHAR
STARTCHAR char59261
ENCODING 62214
SWIDTH 560 0
DWIDTH 7 0
BBX 7 12 0 -2
BITMAP
00
00
3C
66
DA
B2
B6
9C
80
40
20
00
ENDCHAR
STARTCHAR char62234
ENCODING 62234
SWIDTH 560 0
DWIDTH 7 0
BBX 7 12 0 -2
BITMAP
00
00
18
2C
3C
26
46
46
B4
6C
00
00
ENDCHAR
STARTCHAR char9755
ENCODING 62573
SWIDTH 560 0
DWIDTH 7 0
BBX 7 12 0 -2
BITMAP
00
00
10
38
7C
FE
7C
6C
6C
6C
00
00
ENDCHAR
STARTCHAR char9764
ENCODING 62575
SWIDTH 560 0
DWIDTH 7 0
BBX 7 12 0 -2
BITMAP
00
00
00
6C
BA
7C
BA
BA
44
44
00
00
ENDCHAR
STARTCHAR char9730
ENCODING 62578
SWIDTH 560 0
DWIDTH 7 0
BBX 7 12 0 -2
BITMAP
00
38
6C
C6
6C
BA
44
BA
44
38
00
00
ENDCHAR
STARTCHAR char62594
ENCODING 62594
SWIDTH 560 0
DWIDTH 7 0
BBX 7 12 0 -2
BITMAP
00
00
00
F0
9E
F6
82
F6
FE
00
00
00
ENDCHAR
ENDFONT
